<?xml version="1.0" encoding="UTF-8" standalone="no"?>
<!-- Created with Inkscape (http://www.inkscape.org/) -->

<svg
   xmlns:dc="http://purl.org/dc/elements/1.1/"
   xmlns:cc="http://creativecommons.org/ns#"
   xmlns:rdf="http://www.w3.org/1999/02/22-rdf-syntax-ns#"
   xmlns:svg="http://www.w3.org/2000/svg"
   xmlns="http://www.w3.org/2000/svg"
   xmlns:sodipodi="http://sodipodi.sourceforge.net/DTD/sodipodi-0.dtd"
   xmlns:inkscape="http://www.inkscape.org/namespaces/inkscape"
   width="500"
   height="385"
   viewBox="0 0 132.29 101.8633"
   version="1.1"
   id="svg8"
   inkscape:version="0.92.2 5c3e80d, 2017-08-06"
   sodipodi:docname="logo_with_tree.svg">
  <sodipodi:namedview
     id="base"
     pagecolor="#ffffff"
     bordercolor="#666666"
     borderopacity="1.0"
     inkscape:pageopacity="0.0"
     inkscape:pageshadow="2"
     inkscape:zoom="1.4"
     inkscape:cx="246.96681"
     inkscape:cy="191.20829"
     inkscape:document-units="px"
     inkscape:current-layer="layer1"
     showgrid="false"
     inkscape:window-width="1280"
     inkscape:window-height="778"
     inkscape:window-x="0"
     inkscape:window-y="0"
     inkscape:window-maximized="1"
     inkscape:snap-text-baseline="false"
     units="px"
     fit-margin-top="0"
     fit-margin-left="100"
     fit-margin-right="0"
     fit-margin-bottom="0"
     borderlayer="true" />
  <defs
     id="defs2">
    <clipPath
       clipPathUnits="userSpaceOnUse"
       id="clipPath4738">
      <rect
         style="opacity:1;fill:#ff0000;fill-opacity:0.44285715;stroke-width:1.21865749;stroke-miterlimit:4;stroke-dasharray:none"
         id="rect4740"
         width="90.001717"
         height="105.76841"
         x="20.828375"
         y="65.235802" />
    </clipPath>
  </defs>
  <metadata
     id="metadata5">
    <rdf:RDF>
      <cc:Work
         rdf:about="">
        <dc:format>image/svg+xml</dc:format>
        <dc:type
           rdf:resource="http://purl.org/dc/dcmitype/StillImage" />
        <dc:title></dc:title>
      </cc:Work>
    </rdf:RDF>
  </metadata>
  <g
     inkscape:label="Layer 1"
     inkscape:groupmode="layer"
     id="layer1"
     transform="translate(-1.1115064,-0.43792672)">
    <text
       xml:space="preserve"
       style="font-style:normal;font-weight:normal;font-size:10.58333302px;line-height:1.25;font-family:sans-serif;letter-spacing:0px;word-spacing:0px;fill:#000000;fill-opacity:1;stroke:none;stroke-width:0.26458332px;stroke-linecap:butt;stroke-linejoin:miter;stroke-opacity:1"
       x="30.805044"
       y="167.92113"
       id="text4842"><tspan
         sodipodi:role="line"
         x="30.805044"
         y="177.2849"
         style="fill:#000000;fill-opacity:1;stroke-width:0.26458332px"
         id="tspan4844" /></text>
    <text
       xml:space="preserve"
       style="font-style:normal;font-weight:normal;font-size:10.58333302px;line-height:1.25;font-family:sans-serif;letter-spacing:0px;word-spacing:0px;fill:#000000;fill-opacity:1;stroke:none;stroke-width:0.26458332px;stroke-linecap:butt;stroke-linejoin:miter;stroke-opacity:1"
       x="110.55804"
       y="165.46426"
       id="text4850"><tspan
         sodipodi:role="line"
         id="tspan4848"
         x="110.55804"
         y="174.82803"
         style="stroke-width:0.26458332px" /></text>
    <g
       id="g4973"
       clip-path="url(#clipPath4738)"
       transform="translate(-43.415401,-69.333604)"
       style="stroke:#130000;stroke-opacity:1">
      <path
         sodipodi:nodetypes="csssssc"
         inkscape:connector-curvature="0"
         id="path4953"
         d="m 60.570603,131.48122 c 8.476017,0 14.111385,-0.55604 22.60432,-5.38277 4.823245,-2.74117 9.687943,-6.15723 15.23589,-6.22524 3.841997,-0.0471 5.784997,2.43326 5.843947,4.89792 0.0566,2.36578 -1.68065,3.51674 -1.68065,3.51674 -1.48445,1.18068 -3.686628,1.10966 -5.072878,-0.53271 -1.47339,-1.7456 0.09092,-3.40674 0.09092,-3.40674"
         style="fill:none;fill-rule:evenodd;stroke:#130000;stroke-width:1;stroke-linecap:butt;stroke-linejoin:miter;stroke-miterlimit:4;stroke-dasharray:none;stroke-opacity:1" />
      <path
         inkscape:connector-curvature="0"
         id="path4955"
         d="M 46.103992,138.24189 H 62.808339"
         style="fill:none;fill-rule:evenodd;stroke:#130000;stroke-width:1;stroke-linecap:butt;stroke-linejoin:miter;stroke-miterlimit:4;stroke-dasharray:none;stroke-opacity:1" />
      <path
         inkscape:connector-curvature="0"
         id="path4957"
         d="M 46.237628,160.15799 H 116.52951"
         style="fill:none;fill-rule:evenodd;stroke:#130000;stroke-width:1;stroke-linecap:butt;stroke-linejoin:miter;stroke-miterlimit:4;stroke-dasharray:none;stroke-opacity:1" />
      <path
         inkscape:connector-curvature="0"
         id="path4959"
         d="m 114.39136,131.42652 h -11.62623 v -3.34087"
         style="fill:none;fill-rule:evenodd;stroke:#130000;stroke-width:1;stroke-linecap:butt;stroke-linejoin:miter;stroke-miterlimit:4;stroke-dasharray:none;stroke-opacity:1" />
      <path
         inkscape:connector-curvature="0"
         id="path4961"
         d="M 100.89425,115.93025 V 95.484139"
         style="fill:none;fill-rule:evenodd;stroke:#130000;stroke-width:1;stroke-linecap:butt;stroke-linejoin:miter;stroke-miterlimit:4;stroke-dasharray:none;stroke-opacity:1" />
      <path
         inkscape:connector-curvature="0"
         id="path4963"
         d="m 112.11956,92.276905 h -6.14719 l -7.105819,4.102541"
         style="fill:none;fill-rule:evenodd;stroke:#130000;stroke-width:1;stroke-linecap:butt;stroke-linejoin:miter;stroke-miterlimit:4;stroke-dasharray:none;stroke-opacity:1" />
      <path
         inkscape:connector-curvature="0"
         id="path4965"
         d="m 102.09696,85.595165 v 8.68626"
         style="fill:none;fill-rule:evenodd;stroke:#130000;stroke-width:1;stroke-linecap:butt;stroke-linejoin:miter;stroke-miterlimit:4;stroke-dasharray:none;stroke-opacity:1" />
      <path
         inkscape:connector-curvature="0"
         id="path4967"
         d="m 112.2532,83.050733 h -6.01356 l -5.58692,3.22561"
         style="fill:none;fill-rule:evenodd;stroke:#130000;stroke-width:1;stroke-linecap:butt;stroke-linejoin:miter;stroke-miterlimit:4;stroke-dasharray:none;stroke-opacity:1" />
      <path
         sodipodi:nodetypes="cccc"
         inkscape:connector-curvature="0"
         id="path4969"
         d="m 111.18412,74.369845 -4.00904,3.0736 -1.01601,3.791802 -5.50635,5.041096"
         style="fill:none;fill-rule:evenodd;stroke:#130000;stroke-width:1;stroke-linecap:butt;stroke-linejoin:miter;stroke-miterlimit:4;stroke-dasharray:none;stroke-opacity:1" />
      <path
         inkscape:connector-curvature="0"
         id="path4971"
         d="m 116.12324,84.926991 h -7.34991 v 5.612662 h 8.15172"
         style="fill:none;fill-rule:evenodd;stroke:#130000;stroke-width:1;stroke-linecap:butt;stroke-linejoin:miter;stroke-miterlimit:4;stroke-dasharray:none;stroke-opacity:1" />
    </g>
    <g
       transform="matrix(-1,0,0,1,178.25246,-69.333604)"
       clip-path="url(#clipPath4738)"
       id="g4995"
       style="stroke:#130000;stroke-opacity:1">
      <path
         style="fill:none;fill-rule:evenodd;stroke:#130000;stroke-width:1;stroke-linecap:butt;stroke-linejoin:miter;stroke-miterlimit:4;stroke-dasharray:none;stroke-opacity:1"
         d="m 60.570603,131.48122 c 8.476017,0 14.111385,-0.55604 22.60432,-5.38277 4.823245,-2.74117 9.687943,-6.15723 15.23589,-6.22524 3.841997,-0.0471 5.784997,2.43326 5.843947,4.89792 0.0566,2.36578 -1.68065,3.51674 -1.68065,3.51674 -1.48445,1.18068 -3.686628,1.10966 -5.072878,-0.53271 -1.47339,-1.7456 0.09092,-3.40674 0.09092,-3.40674"
         id="path4975"
         inkscape:connector-curvature="0"
         sodipodi:nodetypes="csssssc" />
      <path
         style="fill:none;fill-rule:evenodd;stroke:#130000;stroke-width:1;stroke-linecap:butt;stroke-linejoin:miter;stroke-miterlimit:4;stroke-dasharray:none;stroke-opacity:1"
         d="M 46.103992,138.24189 H 62.808339"
         id="path4977"
         inkscape:connector-curvature="0" />
      <path
         style="fill:none;fill-rule:evenodd;stroke:#130000;stroke-width:1;stroke-linecap:butt;stroke-linejoin:miter;stroke-miterlimit:4;stroke-dasharray:none;stroke-opacity:1"
         d="M 46.237628,160.15799 H 116.52951"
         id="path4979"
         inkscape:connector-curvature="0" />
      <path
         style="fill:none;fill-rule:evenodd;stroke:#130000;stroke-width:1;stroke-linecap:butt;stroke-linejoin:miter;stroke-miterlimit:4;stroke-dasharray:none;stroke-opacity:1"
         d="m 114.39136,131.42652 h -11.62623 v -3.34087"
         id="path4981"
         inkscape:connector-curvature="0" />
      <path
         style="fill:none;fill-rule:evenodd;stroke:#130000;stroke-width:1;stroke-linecap:butt;stroke-linejoin:miter;stroke-miterlimit:4;stroke-dasharray:none;stroke-opacity:1"
         d="m 112.11956,92.276905 h -6.14719 c 0,0 -2.05045,0.842537 -2.19219,1.220509"
         id="path4985"
         inkscape:connector-curvature="0"
         sodipodi:nodetypes="ccc" />
      <path
         style="fill:none;fill-rule:evenodd;stroke:#130000;stroke-width:1;stroke-linecap:butt;stroke-linejoin:miter;stroke-miterlimit:4;stroke-dasharray:none;stroke-opacity:1"
         d="m 112.2532,83.050733 h -6.01356 l -3.46083,2.327928"
         id="path4989"
         inkscape:connector-curvature="0"
         sodipodi:nodetypes="ccc" />
      <path
         style="fill:none;fill-rule:evenodd;stroke:#130000;stroke-width:1;stroke-linecap:butt;stroke-linejoin:miter;stroke-miterlimit:4;stroke-dasharray:none;stroke-opacity:1"
         d="m 111.18412,74.369845 -4.00904,3.0736 -1.01601,3.791802 -3.61649,3.387471"
         id="path4991"
         inkscape:connector-curvature="0"
         sodipodi:nodetypes="cccc" />
      <path
         style="fill:none;fill-rule:evenodd;stroke:#130000;stroke-width:1;stroke-linecap:butt;stroke-linejoin:miter;stroke-miterlimit:4;stroke-dasharray:none;stroke-opacity:1"
         d="m 116.12324,84.926991 h -7.34991 v 5.612662 h 8.15172"
         id="path4993"
         inkscape:connector-curvature="0" />
    </g>
    <path
       style="fill:none;fill-rule:evenodd;stroke:#130000;stroke-width:1;stroke-linecap:butt;stroke-linejoin:miter;stroke-miterlimit:4;stroke-dasharray:none;stroke-opacity:1"
       d="M 67.384599,0.7673787 V 5.2085988"
       id="path4997"
       inkscape:connector-curvature="0" />
    <text
       xml:space="preserve"
       style="font-style:normal;font-variant:normal;font-weight:normal;font-stretch:normal;font-size:7.05555534px;line-height:1.25;font-family:Arial;-inkscape-font-specification:'Arial, Normal';font-variant-ligatures:normal;font-variant-caps:normal;font-variant-numeric:normal;font-feature-settings:normal;text-align:center;letter-spacing:0px;word-spacing:0px;writing-mode:lr-tb;text-anchor:middle;fill:#000000;fill-opacity:1;stroke:none;stroke-width:0.26458332px;stroke-linecap:butt;stroke-linejoin:miter;stroke-opacity:1"
       x="67.366196"
       y="100.28852"
       id="text5001"><tspan
         sodipodi:role="line"
         x="67.366196"
         y="100.28852"
         style="font-style:normal;font-variant:normal;font-weight:normal;font-stretch:normal;font-size:7.05555534px;font-family:Arial;-inkscape-font-specification:'Arial, Normal';font-variant-ligatures:normal;font-variant-caps:normal;font-variant-numeric:normal;font-feature-settings:normal;text-align:center;writing-mode:lr-tb;text-anchor:middle;fill:#000000;fill-opacity:1;stroke-width:0.26458332px"
         id="tspan4999">North Westdale Neighborhood Association</tspan></text>
    <g
       aria-label="NWNA"
       transform="matrix(0.85788243,0,0,1.1656609,-43.415401,-69.333508)"
       style="font-style:normal;font-variant:normal;font-weight:normal;font-stretch:normal;font-size:33.94893646px;line-height:1.25;font-family:sans-serif;-inkscape-font-specification:'sans-serif, Normal';font-variant-ligatures:normal;font-variant-caps:normal;font-variant-numeric:normal;font-feature-settings:normal;text-align:start;letter-spacing:0px;word-spacing:0px;writing-mode:lr-tb;text-anchor:start;fill:#000000;fill-opacity:1;stroke:none;stroke-width:0.3978391px;stroke-linecap:butt;stroke-linejoin:miter;stroke-opacity:1"
       id="g5011">
      <path
         d="m 78.833646,112.41853 h 4.508843 l 10.973728,20.70421 v -23.91421 l 3.249019,-1.03179 v 28.99069 H 93.056393 L 82.082665,116.46322 v 20.70421 h -3.249019 z"
         style="font-style:normal;font-variant:normal;font-weight:normal;font-stretch:normal;font-size:33.94893646px;font-family:sans-serif;-inkscape-font-specification:'sans-serif, Normal';font-variant-ligatures:normal;font-variant-caps:normal;font-variant-numeric:normal;font-feature-settings:normal;text-align:start;writing-mode:lr-tb;text-anchor:start;fill:#000000;fill-opacity:1;stroke-width:0.3978391px"
         id="path5003"
         inkscape:connector-curvature="0"
         sodipodi:nodetypes="ccccccccccc" />
      <path
         d="m 100.62239,106.68638 3.07008,-0.91714 6.91858,27.56899 5.18848,-20.9197 h 3.7629 l 5.20506,20.9197 5.18848,-20.9197 h 3.39821 l -6.21623,24.7489 h -4.21047 l -5.22164,-21.48331 -5.27136,21.48331 h -4.21047 z"
         style="font-style:normal;font-variant:normal;font-weight:normal;font-stretch:normal;font-size:33.94893646px;font-family:sans-serif;-inkscape-font-specification:'sans-serif, Normal';font-variant-ligatures:normal;font-variant-caps:normal;font-variant-numeric:normal;font-feature-settings:normal;text-align:start;writing-mode:lr-tb;text-anchor:start;fill:#000000;fill-opacity:1;stroke-width:0.3978391px"
         id="path5005"
         inkscape:connector-curvature="0"
         sodipodi:nodetypes="cccccccccccccc" />
      <path
         d="m 138.01308,112.41853 h 4.50885 l 10.97373,20.70421 v -28.04135 l 3.24901,0.91714 v 31.1689 h -4.50884 L 141.2621,116.46322 v 20.70421 h -3.24902 z"
         style="font-style:normal;font-variant:normal;font-weight:normal;font-stretch:normal;font-size:33.94893646px;font-family:sans-serif;-inkscape-font-specification:'sans-serif, Normal';font-variant-ligatures:normal;font-variant-caps:normal;font-variant-numeric:normal;font-feature-settings:normal;text-align:start;writing-mode:lr-tb;text-anchor:start;fill:#000000;fill-opacity:1;stroke-width:0.3978391px"
         id="path5007"
         inkscape:connector-curvature="0"
         sodipodi:nodetypes="ccccccccccc" />
      <path
         d="m 171.68021,115.71728 -4.54199,12.31643 h 9.10057 z m -1.42241,-4.55982 3.01718,0.68786 9.74365,25.32211 h -3.48109 l -2.25442,-6.34884 h -11.15608 l -2.25442,6.34884 h -3.53082 z"
         style="font-style:normal;font-variant:normal;font-weight:normal;font-stretch:normal;font-size:33.94893646px;font-family:sans-serif;-inkscape-font-specification:'sans-serif, Normal';font-variant-ligatures:normal;font-variant-caps:normal;font-variant-numeric:normal;font-feature-settings:normal;text-align:start;writing-mode:lr-tb;text-anchor:start;fill:#000000;fill-opacity:1;stroke-width:0.3978391px"
         id="path5009"
         inkscape:connector-curvature="0"
         sodipodi:nodetypes="ccccccccccccc" />
    </g>
    <g
       style="fill:#000000;stroke:none"
       transform="matrix(0.00657538,0,0,-0.00657538,69.204029,46.571948)"
       id="g7978">
      <path
         inkscape:connector-curvature="0"
         d="m 1230,6655 c -26,-32 13,-81 48,-59 34,22 22,74 -18,74 -10,0 -23,-7 -30,-15 z"
         id="path7622" />
      <path
         inkscape:connector-curvature="0"
         d="m 659,6644 c -17,-21 0,-49 31,-49 31,0 48,28 31,49 -8,9 -21,16 -31,16 -10,0 -23,-7 -31,-16 z"
         id="path7624" />
      <path
         inkscape:connector-curvature="0"
         d="m 1040,6645 c -26,-31 13,-82 44,-56 19,16 21,42 4,59 -16,16 -33,15 -48,-3 z"
         id="path7626" />
      <path
         inkscape:connector-curvature="0"
         d="m 901,6631 c -6,-11 -11,-28 -11,-38 0,-25 -11,-39 -37,-47 -17,-5 -24,-1 -35,21 -15,32 -54,38 -72,11 -8,-14 -7,-21 6,-35 16,-16 16,-17 -5,-27 -26,-14 -34,-58 -13,-75 10,-8 13,-22 10,-40 -4,-18 0,-32 11,-41 25,-21 50,0 51,41 0,19 4,44 9,57 6,19 12,22 39,17 24,-5 36,-2 50,14 11,12 24,21 30,21 6,0 0,-7 -12,-16 -12,-8 -22,-21 -22,-27 0,-7 -15,-17 -32,-22 -28,-8 -33,-15 -33,-40 0,-23 5,-31 22,-33 18,-3 21,-7 14,-26 -17,-44 34,-77 67,-44 7,7 24,12 38,13 37,0 53,28 31,53 -23,26 -22,27 19,26 31,-1 40,-7 60,-39 12,-21 30,-69 39,-106 13,-53 25,-77 52,-103 19,-18 40,-44 47,-57 8,-17 21,-24 41,-25 50,-2 54,-3 75,-24 17,-17 20,-28 14,-69 -5,-39 -3,-49 10,-54 9,-4 13,-13 10,-22 -6,-14 -8,-14 -24,0 -23,21 -47,19 -62,-5 -16,-26 -40,-26 -56,1 -15,24 -50,22 -65,-3 -14,-21 7,-48 38,-48 14,0 25,-7 28,-20 3,-14 14,-20 32,-20 18,0 29,6 32,20 3,11 13,20 22,20 9,0 22,5 29,12 9,9 12,8 12,-6 0,-9 -38,-56 -85,-103 -75,-74 -89,-84 -111,-79 -30,8 -54,-8 -54,-35 0,-24 -12,-30 -49,-23 -20,4 -31,12 -31,24 0,26 38,55 72,55 37,0 58,26 42,53 -15,24 -42,27 -64,7 -11,-10 -24,-14 -31,-9 -9,5 -6,10 10,16 32,11 26,62 -8,66 -13,2 -28,-1 -34,-7 -17,-17 -37,-13 -37,8 0,28 -28,47 -48,34 -25,-15 -21,-56 6,-68 12,-5 22,-17 22,-25 0,-9 5,-21 12,-28 18,-18 3,-25 -21,-10 -26,16 -53,2 -61,-31 -5,-23 -5,-23 -23,-3 -17,19 -17,20 3,25 27,7 35,32 21,63 -9,20 -17,25 -39,22 -21,-2 -28,-9 -30,-30 -4,-37 -14,-35 -45,10 -41,59 -49,89 -41,164 5,49 3,72 -6,83 -7,9 -10,18 -7,21 8,9 53,-27 63,-51 11,-24 40,-31 59,-15 21,17 19,46 -4,62 -21,15 -38,58 -22,58 5,0 13,-4 16,-10 8,-14 48,-13 63,2 8,8 15,8 24,1 21,-17 109,-11 121,9 17,26 -7,45 -64,53 -32,5 -54,3 -63,-5 -10,-7 -16,-8 -21,0 -8,13 -52,13 -60,0 -4,-6 -13,-5 -25,3 -24,15 -54,-1 -56,-29 -1,-11 -2,-23 -3,-28 -1,-5 -10,-1 -21,9 -11,10 -28,15 -40,12 -11,-3 -20,-1 -20,3 0,5 10,10 23,12 15,2 23,11 25,30 6,51 -64,62 -90,15 -12,-22 -12,-21 -18,8 -4,24 -11,31 -33,33 -21,3 -29,-2 -37,-22 -11,-29 -35,-34 -44,-10 -4,11 -15,15 -35,12 -20,-3 -32,1 -40,14 -14,22 -33,23 -71,3 -21,-11 -30,-23 -30,-41 0,-31 22,-40 68,-26 30,10 38,9 45,-3 4,-8 15,-15 22,-15 8,0 15,-3 15,-7 -1,-34 -75,-39 -102,-8 -21,26 -52,10 -56,-29 -2,-14 -9,-26 -17,-26 -20,0 -57,-57 -53,-83 4,-29 55,-38 65,-10 3,10 13,26 21,35 8,10 12,24 9,33 -4,8 -2,15 2,15 5,0 17,3 26,6 14,6 15,2 10,-28 -5,-25 -2,-38 10,-48 22,-18 49,-2 53,31 6,35 21,50 47,43 13,-3 26,0 30,6 4,6 18,15 31,20 13,5 25,16 25,25 3,28 4,33 12,41 4,4 7,-5 7,-20 0,-14 7,-29 15,-32 23,-9 7,-25 -19,-18 -42,10 -62,-46 -24,-70 13,-8 21,-6 35,7 33,29 61,12 69,-42 11,-78 30,-155 48,-188 9,-18 15,-46 14,-64 -3,-33 7,-44 54,-53 17,-4 38,-23 59,-52 29,-43 30,-46 14,-64 -12,-13 -15,-27 -11,-45 6,-23 11,-26 44,-23 29,2 37,-1 40,-15 3,-13 -3,-17 -26,-17 -37,0 -60,-25 -45,-48 8,-13 26,-17 73,-17 39,-1 65,-5 67,-12 2,-6 -6,-13 -19,-15 -31,-4 -34,-61 -3,-67 11,-2 26,-12 34,-23 10,-15 21,-19 42,-14 44,8 38,-23 -14,-82 -24,-27 -51,-59 -59,-71 -14,-19 -19,-21 -36,-10 -24,15 -52,-2 -52,-32 0,-14 -11,-19 -46,-25 -54,-8 -64,-25 -36,-64 25,-34 41,-110 23,-110 -7,0 -23,-11 -36,-24 -23,-23 -27,-24 -52,-11 -16,8 -31,15 -35,15 -11,0 -38,-31 -38,-44 0,-7 37,-53 83,-102 45,-49 98,-114 118,-144 125,-191 174,-285 184,-358 5,-40 0,-59 -31,-132 -43,-98 -45,-123 -15,-205 12,-33 33,-101 46,-151 14,-49 38,-119 53,-155 16,-35 33,-74 37,-87 6,-21 5,-22 -13,-11 -36,23 -78,-15 -52,-46 18,-21 46,-19 63,5 14,21 14,21 20,-2 4,-14 0,-29 -10,-41 -21,-22 -8,-49 27,-57 31,-7 38,-38 29,-125 -7,-77 -70,-252 -114,-314 -14,-21 -25,-41 -25,-47 -1,-13 -36,-54 -48,-54 -5,0 -25,20 -43,45 -19,25 -46,62 -61,82 -30,38 -32,52 -22,127 7,48 22,58 44,31 16,-20 49,-16 64,7 8,14 7,21 -6,34 -13,13 -14,20 -5,35 25,41 -37,80 -65,41 -20,-29 -52,-32 -56,-6 -2,16 2,20 19,20 12,-1 26,8 33,19 6,10 20,26 30,35 14,12 17,24 12,43 -5,22 -12,27 -37,27 -19,0 -31,-6 -35,-17 -9,-30 -20,-47 -33,-51 -9,-3 -11,15 -6,79 5,54 3,94 -4,113 -9,23 -9,31 5,40 24,18 15,60 -14,64 -13,2 -29,-1 -36,-7 -16,-13 -69,9 -156,64 -41,26 -64,35 -90,33 -47,-4 -53,-36 -13,-68 19,-16 22,-21 8,-15 -130,49 -227,44 -213,-13 4,-15 -5,-13 -59,16 -35,18 -77,37 -94,42 -43,13 -71,-3 -67,-38 2,-21 13,-30 54,-46 116,-47 251,-191 320,-342 44,-94 71,-135 158,-237 36,-42 82,-107 102,-144 21,-38 55,-90 75,-118 50,-67 150,-367 174,-521 24,-153 49,-279 85,-424 29,-118 32,-141 41,-409 7,-235 6,-328 -8,-540 -19,-280 -22,-436 -15,-639 l 5,-132 h 164 164 l -13,23 c -9,16 -12,88 -10,277 1,140 3,439 5,665 1,226 6,435 11,465 15,106 55,325 62,345 8,22 143,202 214,285 67,78 102,125 135,182 19,32 59,89 88,126 30,37 68,89 84,116 29,46 36,51 114,77 46,16 131,36 189,45 101,16 123,23 335,116 160,69 198,92 254,148 54,54 58,56 70,38 14,-23 49,-21 65,4 8,13 8,23 -1,37 -16,26 -10,29 112,80 55,23 120,50 145,61 101,43 179,74 244,97 38,13 80,31 93,40 13,9 84,33 159,54 126,35 137,37 169,23 19,-8 44,-14 56,-14 11,0 53,-22 93,-50 l 72,-49 46,14 c 26,7 84,19 130,25 105,15 120,19 93,30 -11,5 -36,9 -55,9 -27,1 -38,7 -45,24 -13,30 -50,34 -67,8 -15,-24 -60,-28 -95,-8 -188,107 -181,99 -135,156 21,25 49,63 61,84 13,21 34,45 47,54 23,14 26,14 44,-2 24,-22 51,-16 67,15 9,18 25,27 65,36 29,6 60,14 68,18 10,4 18,-1 25,-16 17,-40 75,-31 75,11 0,9 10,21 23,26 18,9 21,17 19,50 -4,49 -17,65 -51,66 -26,0 -26,0 -3,9 12,5 25,16 28,25 4,10 14,13 30,9 16,-4 31,0 43,10 13,12 21,14 26,7 3,-6 14,-11 23,-11 10,0 22,-10 27,-22 7,-16 19,-23 40,-24 17,0 42,-4 58,-8 49,-14 79,37 38,66 -10,7 -20,22 -22,32 -9,47 -70,45 -77,-3 -4,-27 -18,-27 -25,-1 -7,26 -35,36 -60,21 -14,-9 -22,-10 -30,-2 -17,17 -45,13 -60,-9 -9,-13 -20,-18 -31,-14 -20,8 -46,-12 -46,-37 0,-11 -9,-19 -22,-21 -29,-4 -37,-46 -13,-64 15,-11 12,-13 -21,-19 -22,-3 -77,-14 -124,-25 -47,-10 -101,-21 -121,-25 -35,-5 -36,-4 -31,20 4,21 10,25 41,25 55,0 82,40 46,70 -22,18 -87,0 -100,-28 -12,-26 -35,-29 -35,-4 0,10 -4,22 -9,28 -5,5 -11,20 -13,34 -2,20 -9,25 -33,25 -24,0 -31,-5 -33,-24 -2,-13 1,-28 7,-34 18,-18 13,-27 -13,-27 -14,0 -31,-8 -38,-18 -7,-10 -21,-21 -31,-25 -25,-10 -32,-36 -14,-55 15,-14 14,-16 -6,-27 -42,-21 -29,-75 18,-75 13,0 25,-7 29,-15 3,-8 18,-15 33,-15 h 27 l -33,-34 c -32,-33 -112,-68 -221,-96 -25,-6 -81,-31 -125,-55 -44,-23 -124,-57 -177,-74 -54,-17 -137,-48 -185,-70 -48,-21 -122,-53 -163,-70 -41,-17 -93,-42 -115,-55 l -39,-24 -11,21 c -6,12 -18,23 -28,25 -38,8 -63,-42 -34,-67 11,-9 3,-22 -42,-67 -51,-52 -65,-60 -161,-91 -58,-18 -134,-44 -170,-58 -112,-41 -271,-85 -310,-85 -44,0 -48,7 -57,92 -5,52 -4,58 13,58 25,0 87,64 82,86 -1,9 -11,22 -21,28 -15,9 -22,6 -41,-16 -28,-36 -36,-35 -36,1 0,26 4,30 33,33 27,3 33,8 35,31 3,22 -1,30 -17,34 -12,3 -21,10 -21,15 0,8 62,112 147,244 11,18 12,18 12,-3 1,-12 9,-28 20,-35 10,-7 20,-22 22,-32 6,-29 34,-43 53,-27 22,18 20,48 -4,63 -30,19 -24,30 13,23 24,-5 37,-2 47,10 17,21 2,49 -29,53 -11,2 -21,10 -21,17 0,40 150,141 253,171 30,9 67,30 87,49 38,35 119,95 129,95 4,0 7,-12 6,-26 0,-33 28,-53 53,-38 25,16 22,56 -6,70 -31,15 -7,25 41,17 28,-4 37,-1 46,15 6,11 25,25 42,31 41,14 49,7 12,-11 -18,-8 -29,-22 -31,-38 -2,-14 -8,-35 -14,-48 -9,-17 -9,-28 -1,-40 25,-41 79,-18 69,30 -3,15 -2,28 2,29 46,5 70,4 85,-5 24,-15 52,5 52,36 0,14 6,32 14,41 7,9 11,26 8,38 -6,21 -4,21 63,15 38,-4 98,-16 134,-26 l 66,-18 80,54 c 86,59 92,59 128,12 15,-21 43,-23 60,-6 19,19 14,42 -13,66 -14,12 -25,26 -25,31 0,10 101,51 124,51 41,0 130,46 162,83 28,34 34,37 34,20 0,-29 27,-50 48,-36 35,22 19,80 -20,70 -10,-3 -18,-3 -18,0 0,19 77,136 114,172 l 45,44 18,-22 c 15,-18 30,-23 83,-26 36,-1 73,-6 83,-10 37,-15 71,21 46,51 -8,10 -22,14 -38,11 -14,-3 -31,1 -39,10 -8,8 -26,13 -39,10 -20,-4 -23,0 -23,24 0,15 -4,31 -10,34 -5,3 -10,19 -10,35 0,16 5,32 10,35 15,10 12,55 -5,61 -21,8 -19,21 4,29 25,8 32,39 14,64 -24,35 -73,21 -73,-20 0,-10 -9,-20 -19,-24 -11,-3 -23,-14 -26,-24 -8,-27 -40,-32 -54,-9 -14,23 -49,21 -64,-4 -17,-25 10,-51 45,-44 20,4 28,2 28,-8 0,-10 -18,-17 -52,-23 -50,-8 -53,-10 -53,-38 0,-27 3,-30 32,-30 20,0 29,-3 23,-9 -13,-13 -13,-53 1,-61 5,-4 -10,-19 -34,-35 -25,-15 -51,-37 -59,-49 -10,-14 -21,-19 -32,-15 -19,7 -46,-12 -46,-34 0,-8 7,-23 15,-32 14,-15 13,-19 -10,-42 -13,-13 -43,-30 -66,-37 -22,-7 -46,-14 -53,-17 -6,-2 -16,6 -21,18 -7,16 -19,23 -38,23 -15,1 -44,13 -63,29 -37,30 -61,31 -78,4 -8,-13 -6,-22 8,-37 17,-19 17,-20 -3,-31 -22,-11 -30,-63 -11,-75 19,-11 10,-20 -62,-65 -74,-46 -109,-53 -172,-36 l -29,7 22,16 c 29,20 24,54 -11,71 -22,10 -28,20 -28,47 0,19 5,37 10,40 16,10 11,43 -8,57 -10,7 -22,25 -25,39 -8,32 -38,42 -66,22 -29,-20 -26,-41 9,-61 30,-17 39,-45 19,-58 -7,-4 -9,-22 -4,-50 l 6,-44 -29,6 c -16,3 -32,1 -36,-4 -3,-6 -15,-8 -26,-5 -31,8 -63,-25 -56,-58 5,-28 -1,-31 -109,-54 -16,-4 -60,-20 -98,-36 -37,-17 -71,-28 -76,-25 -4,3 -11,31 -15,63 -4,31 -9,67 -12,80 -5,18 -1,25 20,33 29,11 37,56 11,66 -8,4 -15,12 -15,20 0,18 8,18 26,-1 9,-8 22,-15 29,-15 22,0 47,31 41,53 -4,18 -1,19 50,12 47,-6 55,-4 60,12 3,10 11,28 16,40 13,27 4,53 -22,60 -11,3 -20,13 -20,23 0,10 -7,23 -15,30 -12,10 -7,21 34,73 l 47,62 140,35 c 76,20 153,41 170,47 26,9 32,8 42,-8 19,-29 55,-23 83,14 30,39 38,147 14,184 -19,28 -19,38 1,68 19,29 39,23 21,-5 -16,-26 2,-55 33,-55 31,0 49,29 33,54 -10,15 -9,22 2,31 17,14 20,46 5,55 -5,3 -7,18 -4,33 10,51 -50,72 -71,25 -5,-12 -21,-27 -35,-34 -51,-23 -55,-26 -58,-43 -2,-10 4,-26 13,-37 19,-20 21,-18 -30,-34 -22,-7 -19,-52 5,-65 25,-13 26,-42 3,-63 -27,-24 -186,-61 -228,-53 -19,4 -35,8 -35,9 0,2 9,20 20,42 11,22 20,58 20,81 0,39 3,43 26,46 54,6 57,68 4,76 -22,4 -22,4 6,33 15,16 31,29 35,29 5,0 11,-16 15,-35 11,-63 53,-73 86,-20 30,50 32,57 19,76 -9,15 -8,19 2,19 7,0 18,-5 24,-11 6,-6 21,-9 34,-7 19,2 24,9 24,33 0,25 -4,30 -27,33 -16,2 -28,8 -28,13 0,9 9,10 80,13 32,1 35,4 38,34 4,35 12,39 42,20 35,-22 55,1 55,63 0,51 -1,54 -28,57 -18,2 -29,-2 -33,-12 -3,-9 -18,-16 -32,-16 -24,0 -24,1 -9,18 10,10 17,23 17,29 0,6 8,9 18,7 28,-8 94,10 106,29 8,12 7,20 -5,32 -22,22 -110,9 -117,-17 -3,-13 -10,-17 -24,-12 -23,7 -48,-12 -48,-37 0,-25 -37,-44 -84,-44 -25,0 -42,-6 -49,-17 -15,-23 8,-48 44,-48 16,0 29,-4 29,-9 0,-16 -49,-22 -70,-9 -28,18 -55,-1 -54,-38 1,-33 -10,-44 -46,-44 -31,0 -50,-17 -50,-44 0,-16 -3,-17 -12,-8 -15,15 -61,15 -76,0 -7,-7 -12,-22 -12,-35 0,-29 -12,-30 -25,0 -12,26 -53,30 -68,5 -13,-20 6,-48 34,-48 26,0 24,-23 -3,-35 -27,-12 -30,-43 -6,-59 13,-8 23,-8 39,2 25,16 37,9 20,-11 -6,-8 -8,-27 -5,-46 7,-34 3,-37 -26,-19 -15,10 -25,10 -38,2 -25,-16 -27,-51 -3,-65 16,-11 18,-17 9,-33 -13,-25 -71,-103 -151,-205 -32,-40 -69,-96 -83,-123 -25,-49 -26,-50 -45,-32 -25,23 -53,9 -57,-28 -2,-16 -11,-28 -23,-31 -23,-6 -27,-55 -4,-63 12,-5 15,-32 15,-159 0,-164 -6,-194 -48,-238 -24,-25 -190,-112 -198,-104 -2,2 -10,36 -19,77 l -15,73 64,67 c 36,37 67,78 70,91 21,97 26,139 26,204 v 74 l 69,105 c 38,57 79,128 92,156 21,46 24,50 29,29 5,-19 13,-24 35,-24 27,0 30,3 30,30 0,27 -3,30 -32,30 -37,0 -37,-1 -22,27 9,17 17,19 53,14 33,-5 46,-3 56,9 18,21 2,49 -29,53 l -23,4 20,21 c 11,12 22,38 24,57 3,19 9,44 13,55 8,17 3,15 -24,-8 -30,-25 -46,-32 -95,-39 -10,-2 -24,-11 -30,-21 -9,-15 -7,-22 13,-38 l 23,-19 -26,-35 c -39,-51 -54,-46 -58,18 -3,50 -4,52 -33,52 -25,0 -31,-4 -33,-27 -2,-20 -9,-28 -29,-30 -34,-4 -51,-31 -33,-53 10,-12 23,-14 55,-9 42,6 43,6 48,-28 6,-45 1,-51 -33,-33 -16,8 -35,15 -43,15 -8,0 -18,7 -21,16 -4,10 -16,14 -38,12 -26,-2 -34,-8 -36,-26 -4,-29 14,-52 42,-52 28,0 81,-43 72,-58 -5,-9 -13,-8 -31,4 -52,34 -95,-44 -44,-79 21,-15 20,-15 -8,-29 -26,-13 -28,-17 -30,-83 -4,-122 -11,-199 -24,-233 -9,-27 -14,-31 -26,-21 -17,15 -91,13 -110,-2 -11,-9 -17,-8 -26,5 -19,26 -61,17 -67,-14 -4,-18 -11,-25 -29,-25 -31,0 -50,-28 -35,-52 23,-37 84,-23 84,18 0,11 7,19 18,19 13,0 17,-8 17,-32 0,-23 6,-35 21,-43 22,-11 22,-11 -7,-43 -22,-24 -29,-42 -29,-72 0,-22 -5,-40 -10,-40 -6,0 -8,10 -5,23 11,43 -44,63 -69,25 -8,-13 -6,-22 8,-37 19,-21 19,-21 -8,-21 -34,0 -40,-17 -28,-77 8,-35 8,-49 -1,-52 -6,-2 -21,-14 -32,-26 -19,-18 -32,-21 -88,-18 -72,2 -91,-9 -85,-49 3,-20 9,-23 45,-23 22,0 45,-3 49,-7 4,-5 17,-8 28,-8 12,0 34,-10 50,-23 l 28,-23 -21,-40 c -12,-21 -32,-53 -44,-71 -12,-18 -41,-66 -65,-108 -24,-41 -47,-75 -52,-75 -4,0 -13,7 -20,15 -7,8 -21,15 -31,15 -12,0 -19,7 -19,20 0,24 -56,62 -84,58 -10,-2 -24,-11 -30,-20 -8,-13 -5,-22 12,-41 25,-26 29,-47 8,-47 -7,0 -19,-7 -26,-15 -16,-20 -80,-20 -80,-1 0,9 12,16 28,18 25,3 27,6 27,52 0,36 -5,52 -17,60 -25,16 -52,-4 -56,-40 -2,-19 -11,-33 -25,-39 -30,-13 -34,-50 -8,-67 27,-17 27,-41 -1,-53 -27,-12 -36,-56 -14,-74 19,-16 53,-6 61,19 4,13 18,19 50,22 48,3 60,-11 23,-27 -27,-12 -35,-40 -18,-60 18,-21 48,-18 62,5 17,27 28,25 28,-3 0,-13 5,-28 11,-34 8,-8 7,-16 -2,-31 -16,-25 2,-52 33,-52 15,0 18,-5 13,-22 -10,-33 -44,-87 -86,-138 -21,-25 -53,-75 -72,-112 -19,-37 -53,-89 -75,-115 -22,-26 -60,-74 -84,-105 -104,-138 -189,-234 -220,-251 -47,-25 -80,-11 -96,39 -49,152 -110,380 -123,461 l -12,72 62,121 c 33,67 61,129 61,139 0,10 11,35 25,55 14,21 53,90 86,155 l 62,117 9,150 c 7,102 14,156 25,173 8,12 44,36 79,52 75,34 74,34 74,11 0,-13 -8,-18 -26,-17 -33,0 -53,-28 -38,-52 16,-26 57,-23 69,4 5,13 20,23 35,25 14,2 29,12 34,24 5,11 19,25 30,30 12,5 22,20 24,36 3,22 16,35 65,62 34,19 75,38 91,42 19,5 33,17 42,40 17,42 25,44 18,5 -3,-16 -1,-32 5,-35 6,-4 8,-19 5,-34 -10,-48 44,-71 70,-30 8,13 8,23 -1,38 -19,29 -6,50 26,44 34,-7 60,19 44,44 -16,26 -49,26 -67,0 -17,-24 -19,-20 -16,25 1,16 -4,29 -14,33 -12,5 -13,9 -3,25 15,24 27,24 27,0 0,-28 28,-47 48,-34 25,15 21,56 -5,68 -13,5 -23,20 -25,35 -4,32 -49,41 -70,12 -7,-10 -19,-22 -26,-26 -8,-5 8,19 34,53 26,33 53,61 60,61 6,0 26,17 44,38 18,20 58,66 89,100 31,35 58,68 59,73 2,5 11,9 21,9 9,0 22,5 29,12 15,15 16,64 2,73 -15,9 7,45 28,45 42,0 56,49 21,74 -16,11 -20,21 -15,40 6,23 9,24 25,14 15,-9 23,-9 35,1 22,18 20,48 -4,63 -28,18 -25,36 8,40 21,2 28,9 30,31 2,18 -2,29 -12,33 -9,3 -16,11 -16,17 0,5 9,2 19,-7 23,-21 49,-18 65,7 16,24 -5,52 -38,52 -20,-1 -25,3 -20,15 3,8 13,34 21,58 10,28 25,48 44,58 16,8 29,22 29,32 0,9 9,28 20,42 l 19,25 16,-22 c 18,-26 47,-30 65,-8 17,20 9,48 -17,61 l -23,11 24,22 c 20,19 24,20 36,6 15,-18 41,-20 57,-4 8,8 16,7 31,-2 17,-10 23,-10 36,0 22,18 20,48 -4,63 -35,22 -25,57 23,78 23,11 49,20 57,21 8,0 33,9 55,20 l 40,19 -77,-6 c -43,-3 -78,-3 -78,1 0,15 62,85 75,85 8,0 24,14 36,32 l 23,31 9,-26 c 12,-36 46,-46 67,-20 19,23 64,27 81,7 6,-8 22,-14 34,-14 53,0 57,66 4,77 -42,8 -26,22 24,20 29,-1 47,-8 59,-22 13,-16 20,-18 35,-9 10,6 19,23 21,37 2,15 11,29 23,32 35,11 9,27 -34,21 -30,-5 -44,-2 -58,10 -12,11 -27,14 -43,10 -14,-3 -28,-2 -31,4 -8,13 -52,13 -60,0 -4,-6 -13,-5 -25,3 -28,17 -56,-3 -53,-37 1,-17 -3,-26 -13,-26 -8,0 -51,-12 -96,-27 -76,-26 -84,-31 -127,-89 -26,-34 -68,-85 -94,-114 -46,-51 -49,-52 -73,-39 -24,13 -28,11 -50,-14 -25,-29 -31,-61 -14,-72 24,-15 -40,-52 -100,-57 -25,-2 -38,-9 -45,-25 -10,-23 -16,-26 -69,-27 -56,-2 -61,-70 -5,-72 13,-1 36,-2 50,-3 l 27,-1 -40,-109 c -39,-106 -42,-110 -72,-113 -24,-2 -32,-8 -34,-27 -3,-16 3,-30 14,-38 15,-11 16,-17 6,-33 -6,-11 -12,-39 -12,-62 0,-42 0,-42 -16,-20 -18,27 -51,26 -68,0 -14,-23 3,-52 33,-56 19,-3 21,-8 16,-35 -11,-50 -42,-115 -72,-151 -31,-37 -273,-250 -277,-244 -2,1 -24,50 -50,108 -26,58 -60,125 -76,150 -43,69 -46,101 -15,159 15,27 36,51 46,54 26,7 34,34 19,62 -17,31 -6,84 21,103 17,12 20,21 14,48 -4,22 0,46 10,69 15,30 21,34 52,32 49,-3 68,26 34,54 l -24,19 18,48 c 22,57 71,146 90,162 9,7 15,8 20,0 9,-15 41,-12 56,6 10,12 10,20 1,35 -15,24 -10,35 28,54 19,10 31,11 35,5 4,-6 25,-8 54,-4 42,5 50,3 79,-24 21,-19 30,-36 26,-46 -11,-27 -33,-18 -36,15 -4,39 -30,59 -55,43 -27,-17 -27,-51 0,-78 l 24,-24 -22,-10 c -17,-8 -24,-6 -34,10 -14,23 -49,21 -65,-4 -15,-25 4,-53 35,-53 13,0 27,-8 31,-17 4,-10 18,-18 31,-18 25,0 107,55 107,72 0,5 9,6 20,3 46,-15 69,50 28,77 -22,15 -22,15 -3,44 13,21 20,25 23,14 3,-8 10,-21 16,-29 6,-8 11,-30 11,-49 0,-41 25,-63 53,-46 12,8 17,26 18,65 2,58 -15,89 -46,89 -12,0 -19,10 -22,30 -3,20 0,30 9,30 40,0 57,102 18,108 -18,2 -20,10 -19,60 2,81 1,77 31,112 23,28 25,35 14,52 -11,17 -10,22 8,34 11,8 21,26 23,41 2,20 10,29 28,33 14,3 29,16 35,28 5,12 14,22 19,22 5,0 48,-15 95,-34 133,-52 120,-52 203,3 66,44 79,50 111,44 41,-6 67,8 67,38 0,21 38,27 57,8 6,-6 19,-9 29,-7 12,2 23,-5 29,-17 13,-25 57,-31 74,-11 7,8 11,25 9,38 -3,20 -9,23 -40,22 -26,-1 -38,3 -38,12 0,8 -9,19 -19,26 -27,17 -16,35 19,30 21,-3 32,1 36,12 6,15 7,15 18,0 7,-9 22,-14 37,-12 19,2 24,9 24,33 0,24 -5,31 -24,33 -15,2 -30,-3 -37,-12 -10,-15 -12,-15 -18,-1 -7,19 -55,20 -62,2 -4,-11 -14,-12 -50,-4 -42,10 -43,11 -27,29 20,23 8,51 -24,56 -30,5 -50,-24 -34,-50 11,-17 10,-22 -8,-35 -28,-19 -27,-57 2,-76 19,-14 20,-18 7,-26 -8,-6 -27,-11 -43,-11 -20,0 -30,-7 -37,-24 -7,-19 -24,-29 -77,-45 -42,-13 -70,-17 -73,-10 -4,5 -20,11 -37,13 -17,2 -47,12 -66,23 l -36,18 38,40 c 30,32 44,40 72,40 28,0 35,4 37,24 2,13 -1,28 -6,33 -7,7 -7,18 0,34 19,40 1,38 -40,-5 -28,-30 -47,-41 -68,-41 -35,0 -54,-16 -54,-45 0,-13 -18,-34 -52,-59 -41,-32 -54,-37 -67,-27 -30,21 -41,23 -56,11 -18,-15 -19,-42 -3,-58 9,-9 9,-15 0,-24 -9,-9 -15,-8 -26,8 -20,27 -9,68 33,125 29,40 37,45 46,32 6,-8 22,-13 36,-11 19,2 24,9 24,33 0,26 -4,30 -31,33 -26,3 -37,-5 -78,-52 -41,-48 -52,-56 -94,-61 -26,-4 -76,-16 -112,-27 -36,-10 -104,-21 -152,-23 -82,-3 -87,-2 -90,17 -7,49 -69,48 -76,-1 -3,-20 -32,-31 -32,-11 0,25 44,208 56,232 8,14 28,36 45,49 26,18 35,20 50,11 24,-15 56,-15 65,-1 4,7 11,2 18,-13 15,-30 61,-37 75,-10 16,30 -14,65 -50,60 -17,-3 -30,1 -33,9 -9,23 88,21 111,-3 18,-18 34,-18 59,1 10,8 27,15 36,15 9,0 23,8 30,18 20,27 60,52 84,52 12,0 27,6 34,14 6,8 24,16 38,18 33,4 42,40 17,68 -15,17 -13,18 48,14 71,-4 94,9 82,45 -7,22 -46,38 -65,26 -6,-4 -17,-1 -25,5 -8,7 -27,10 -42,7 -15,-3 -34,0 -43,6 -35,21 -77,-21 -48,-49 21,-21 11,-68 -22,-99 l -28,-27 -15,31 c -13,26 -13,30 0,35 9,4 13,16 11,33 -2,23 -8,29 -36,31 -28,3 -31,6 -26,26 10,42 -46,62 -70,24 -8,-13 -6,-21 7,-36 17,-19 17,-20 -5,-26 -39,-10 -66,-7 -72,10 -4,10 -15,14 -33,12 -24,-3 -28,-8 -28,-33 0,-24 5,-31 24,-33 13,-2 32,-13 40,-24 15,-18 22,-19 70,-10 37,7 49,6 42,-1 -6,-6 -11,-19 -11,-28 0,-28 -20,-33 -36,-10 -20,28 -50,27 -69,-3 -11,-16 -30,-27 -54,-31 -22,-4 -75,-31 -126,-66 -67,-45 -93,-57 -111,-53 -45,12 -70,-32 -38,-67 12,-13 13,-22 5,-38 -6,-11 -11,-31 -11,-45 0,-40 -11,-56 -36,-56 -22,0 -23,2 -12,20 23,37 -24,77 -57,50 -19,-16 -19,-44 0,-60 8,-7 12,-17 9,-22 -4,-5 -13,-3 -22,5 -19,17 -98,21 -108,6 -3,-6 -12,-2 -21,10 -17,24 -45,27 -63,6 -27,-32 13,-81 48,-58 15,9 21,7 31,-9 7,-11 22,-19 34,-18 44,4 56,0 51,-15 -4,-8 -12,-15 -19,-15 -7,0 -19,-7 -26,-16 -12,-15 -14,-15 -19,6 -3,13 -13,28 -23,34 -39,24 -77,-39 -39,-66 27,-19 35,-58 12,-58 -11,0 -20,8 -22,21 -8,53 -70,49 -76,-5 -3,-25 -5,-26 -68,-26 -76,0 -76,-3 -18,112 19,37 34,74 34,81 0,8 -18,41 -40,73 -37,55 -39,59 -20,66 26,10 35,34 20,53 -17,21 -48,19 -62,-5 -7,-11 -15,-20 -19,-20 -11,0 4,65 18,76 8,5 13,21 11,35 -2,19 -9,24 -33,24 -27,0 -30,-3 -30,-32 0,-36 -8,-41 -32,-17 -9,8 -24,13 -34,11 -14,-4 -19,2 -21,27 -3,28 -6,31 -36,31 -29,0 -34,4 -42,35 -5,19 -10,40 -10,47 0,7 -12,23 -26,36 -22,21 -23,25 -10,37 9,7 16,19 16,26 0,8 8,14 18,14 24,1 75,55 70,76 -7,36 -33,39 -72,8 -20,-16 -36,-34 -36,-40 0,-16 -58,-26 -78,-14 -18,10 -15,11 33,13 26,2 30,6 30,32 0,24 -5,31 -24,33 -14,2 -30,-3 -36,-11 -7,-9 -20,-13 -37,-10 -24,5 -26,8 -24,56 1,49 0,52 -26,55 -18,2 -30,-3 -37,-17 z m 1481,-788 c 27,-24 22,-32 -15,-26 -38,6 -60,-13 -55,-49 4,-27 -34,-52 -64,-42 -33,10 -50,-14 -42,-60 7,-48 20,-66 44,-66 29,0 45,27 32,55 -11,23 -10,24 7,13 37,-23 75,16 52,53 -17,28 16,25 46,-3 27,-26 28,-42 4,-87 -16,-31 -18,-32 -24,-12 -7,26 -33,37 -52,21 -34,-29 -2,-85 36,-62 10,7 19,10 19,7 0,-19 -63,-126 -79,-134 -11,-6 -29,-27 -41,-46 -17,-27 -28,-35 -52,-35 -21,0 -31,-6 -35,-20 -3,-11 -13,-20 -23,-20 -9,0 -29,-9 -43,-20 -26,-21 -81,-27 -92,-10 -3,6 -26,10 -51,10 -33,0 -47,-5 -56,-20 -16,-25 -22,-25 -57,1 l -28,20 34,37 c 36,39 41,63 18,82 -12,10 -23,8 -60,-9 -42,-20 -45,-24 -45,-60 0,-48 -10,-56 -47,-38 -15,7 -37,12 -48,9 -16,-3 -15,0 8,18 30,24 35,51 13,70 -29,23 -60,7 -86,-43 -27,-55 -20,-83 22,-80 16,1 27,-6 34,-20 10,-25 48,-34 69,-17 23,19 60,-13 60,-53 0,-24 6,-35 23,-42 27,-12 29,-35 3,-35 -28,0 -47,-28 -34,-48 15,-25 50,-27 65,-3 13,21 48,29 48,11 0,-18 -23,-59 -36,-64 -8,-3 -26,0 -40,6 -23,11 -29,9 -48,-13 -12,-14 -30,-28 -40,-32 -12,-5 -16,-15 -14,-34 4,-34 45,-45 64,-18 7,9 22,15 33,13 18,-3 16,-10 -30,-83 -53,-87 -78,-100 -107,-57 -8,13 -11,22 -6,21 21,-4 34,2 44,22 10,17 7,28 -14,60 -15,21 -32,39 -40,39 -22,0 -39,-28 -32,-55 9,-37 0,-31 -31,22 l -27,46 22,15 c 42,28 21,85 -29,80 -24,-3 -24,-1 -29,97 l -5,100 -23,-59 c -13,-33 -32,-66 -43,-74 -23,-16 -25,-45 -4,-62 20,-16 19,-30 -2,-30 -22,0 -53,-29 -53,-50 0,-37 41,-52 71,-24 16,14 20,9 63,-70 25,-46 67,-109 92,-140 63,-78 71,-104 45,-158 -12,-24 -34,-63 -50,-88 -16,-25 -30,-57 -30,-71 -1,-22 -5,-26 -25,-22 -17,4 -28,-1 -38,-16 -7,-12 -20,-21 -29,-21 -9,0 -22,-7 -29,-15 -27,-33 13,-80 50,-58 12,8 21,9 25,3 10,-17 43,-11 58,10 11,16 16,18 20,7 3,-7 -3,-18 -13,-25 -19,-12 -34,-70 -24,-96 8,-21 62,-22 70,-1 10,24 20,18 38,-24 15,-33 16,-41 4,-60 -16,-27 -1,-55 33,-59 19,-3 31,-19 63,-89 31,-69 36,-87 25,-94 -20,-12 -32,-6 -47,24 -7,15 -18,27 -24,27 -6,0 -3,9 8,21 22,25 9,54 -26,54 -33,0 -49,-29 -28,-52 16,-17 15,-20 -1,-42 -23,-30 -42,-20 -35,17 7,35 -19,61 -44,45 -23,-14 -27,-41 -9,-61 24,-26 0,-48 -62,-58 -60,-10 -83,-32 -62,-58 11,-13 25,-15 65,-10 28,3 56,13 62,20 6,8 22,14 35,14 15,0 -28,-27 -114,-72 -149,-77 -187,-112 -187,-173 0,-28 -26,-144 -34,-152 -21,-21 -69,74 -111,220 -15,49 -35,112 -46,140 -14,35 -21,77 -21,127 -1,79 4,93 82,225 73,124 73,122 61,190 -15,84 -14,92 10,98 16,4 20,12 17,34 -3,24 -8,28 -33,28 -23,0 -30,-5 -35,-25 -6,-23 -7,-22 -19,15 -7,22 -26,64 -42,92 -35,64 -35,65 -5,53 13,-5 27,-6 31,-2 4,4 2,-3 -4,-15 -16,-31 2,-63 34,-63 31,0 50,32 35,60 -6,11 -19,20 -29,20 -14,0 -17,6 -13,29 3,20 -2,33 -15,42 -11,8 -25,24 -32,37 -10,20 -19,23 -54,20 -38,-3 -42,-1 -45,22 -3,21 -2,22 11,11 9,-7 26,-11 39,-9 19,2 24,10 28,48 5,42 7,45 35,45 24,0 31,5 33,23 3,17 8,21 26,16 42,-10 62,46 24,69 -20,13 -48,-6 -48,-32 0,-14 -7,-17 -31,-13 -25,4 -31,0 -36,-17 -4,-16 -11,-20 -25,-15 -23,7 -48,-12 -48,-38 0,-10 -4,-17 -9,-13 -17,10 -23,66 -16,145 l 7,79 64,73 c 81,92 85,107 45,163 -26,36 -28,44 -15,49 12,4 15,15 12,36 -3,18 1,35 9,41 16,14 17,45 3,54 -6,4 -8,16 -5,26 4,11 1,27 -6,35 -14,17 -19,12 58,61 58,38 68,41 160,47 54,4 117,9 141,12 42,6 43,6 37,-18 -14,-57 59,-79 94,-29 16,23 28,29 53,27 28,-1 35,4 48,31 10,22 20,31 31,27 19,-5 49,20 49,41 0,25 40,29 61,6 27,-29 47,-26 67,8 16,28 18,29 117,34 88,4 109,8 180,40 44,20 82,37 84,37 3,0 13,-7 23,-17 z M 966,5601 c 5,-5 18,-11 29,-14 11,-3 5,-5 -14,-4 -19,1 -36,8 -39,15 -4,14 10,16 24,3 z m 160,-165 c 9,-19 8,-25 -7,-34 -20,-13 -23,-10 -33,31 -5,22 -3,27 11,27 10,0 23,-11 29,-24 z m 1300,-22 c -15,-40 -17,-65 -6,-79 10,-12 10,-15 -2,-15 -18,0 -76,-28 -83,-41 -10,-15 -29,-10 -42,10 -10,16 -6,24 37,57 27,22 54,49 61,62 14,25 45,31 35,6 z m -446,-191 c 0,-10 -12,-31 -25,-46 -23,-26 -27,-27 -41,-13 -8,9 -27,17 -42,17 -24,2 -24,2 -5,6 13,2 28,12 35,22 23,33 78,42 78,14 z M 950,5003 c 0,-10 3,-36 6,-58 l 6,-40 -29,34 c -20,23 -28,42 -25,58 5,28 42,33 42,6 z m 3320,-477 c 0,-8 -5,-18 -11,-22 -6,-3 -9,-19 -6,-34 5,-20 0,-33 -17,-49 -12,-11 -27,-21 -33,-21 -17,0 -22,38 -7,51 8,6 14,22 14,35 0,15 6,24 15,24 9,0 18,7 21,15 8,19 24,20 24,1 z m -505,-436 c 5,-8 -32,-30 -51,-30 -13,0 -1,29 14,33 28,8 31,7 37,-3 z m -424,-111 c 19,-16 20,-19 6,-15 -10,3 -25,6 -33,6 -8,0 -14,7 -14,15 0,21 14,19 41,-6 z m -1344,-91 c 8,-9 10,-19 5,-22 -11,-6 -33,37 -31,62 1,13 2,12 6,-3 3,-11 12,-27 20,-37 z m 1203,-62 c 0,-8 3,-21 6,-30 4,-10 1,-16 -9,-16 -18,0 -29,24 -21,45 8,19 24,20 24,1 z m 846,-137 c -4,-25 -2,-46 5,-55 8,-10 5,-21 -12,-45 l -23,-33 -8,29 c -4,17 -3,34 2,39 15,15 12,42 -5,56 -14,12 -14,15 1,31 31,34 47,24 40,-22 z M 2300,3575 c 6,-8 9,-19 5,-25 -9,-14 -45,6 -45,25 0,19 24,19 40,0 z M 470,3474 c 41,-8 95,-27 118,-41 43,-24 43,-25 23,-40 -24,-17 -27,-45 -6,-63 20,-17 48,-9 61,17 l 11,23 21,-23 c 29,-31 30,-52 2,-35 -24,16 -55,0 -55,-27 0,-27 31,-43 54,-28 17,11 19,6 24,-70 3,-45 9,-92 13,-104 4,-16 2,-23 -8,-23 -29,0 -58,33 -116,132 -68,116 -152,232 -197,271 -16,15 -28,27 -25,27 3,0 39,-7 80,-16 z m 1491,-426 c 9,-5 1,-6 -23,-2 -30,5 -39,2 -50,-15 -7,-12 -18,-21 -25,-21 -20,0 -15,18 7,25 11,3 20,11 20,16 0,14 44,28 51,17 4,-6 13,-14 20,-20 z m 10,-78 c 10,0 12,-63 3,-97 -10,-36 -26,-27 -19,10 5,24 2,37 -9,46 -22,18 -22,55 0,47 9,-3 20,-6 25,-6 z"
         id="path7628" />
      <path
         inkscape:connector-curvature="0"
         d="m 1794,5546 c -12,-31 0,-51 31,-51 27,0 30,3 30,30 0,25 -4,30 -28,33 -17,2 -29,-2 -33,-12 z"
         id="path7630" />
      <path
         inkscape:connector-curvature="0"
         d="m 1730,5485 c -26,-31 13,-82 44,-56 19,16 21,42 4,59 -16,16 -33,15 -48,-3 z"
         id="path7632" />
      <path
         inkscape:connector-curvature="0"
         d="m 1245,5471 c -7,-25 3,-49 25,-56 39,-12 68,20 50,56 -14,26 -66,26 -75,0 z"
         id="path7634" />
      <path
         inkscape:connector-curvature="0"
         d="m 1452,5438 c -7,-7 -12,-20 -12,-29 0,-43 72,-53 78,-11 6,42 -37,69 -66,40 z"
         id="path7636" />
      <path
         inkscape:connector-curvature="0"
         d="m 1370,5365 c -26,-32 13,-81 48,-59 34,22 22,74 -18,74 -10,0 -23,-7 -30,-15 z"
         id="path7638" />
      <path
         inkscape:connector-curvature="0"
         d="m 1220,5345 c -26,-31 13,-82 44,-56 19,16 21,42 4,59 -16,16 -33,15 -48,-3 z"
         id="path7640" />
      <path
         inkscape:connector-curvature="0"
         d="m 1466,5344 c -21,-20 -20,-30 4,-54 30,-30 68,-26 76,7 6,20 2,31 -16,45 -27,22 -44,23 -64,2 z"
         id="path7642" />
      <path
         inkscape:connector-curvature="0"
         d="m 1562,5258 c -16,-16 -15,-53 3,-68 32,-27 78,22 61,65 -7,18 -47,20 -64,3 z"
         id="path7644" />
      <path
         inkscape:connector-curvature="0"
         d="m 1300,5236 c -17,-22 -8,-60 17,-71 12,-5 27,-20 32,-33 9,-18 18,-23 39,-20 35,4 43,47 13,77 -11,11 -24,29 -31,40 -12,24 -52,28 -70,7 z"
         id="path7646" />
      <path
         inkscape:connector-curvature="0"
         d="m 1162,5068 c -7,-7 -12,-22 -12,-34 0,-49 72,-61 78,-13 5,44 -39,74 -66,47 z"
         id="path7648" />
      <path
         inkscape:connector-curvature="0"
         d="m 1079,4984 c -17,-21 0,-49 31,-49 31,0 48,28 31,49 -8,9 -21,16 -31,16 -10,0 -23,-7 -31,-16 z"
         id="path7650" />
      <path
         inkscape:connector-curvature="0"
         d="m 1471,4866 c -10,-12 -16,-13 -32,-3 -36,22 -76,-25 -49,-58 16,-19 44,-19 60,0 21,26 40,1 27,-35 -12,-32 3,-60 32,-60 38,0 56,55 26,80 -11,9 -12,16 -2,31 24,38 -34,79 -62,45 z"
         id="path7652" />
      <path
         inkscape:connector-curvature="0"
         d="m 1214,4776 c -12,-31 0,-51 31,-51 27,0 30,3 30,30 0,25 -4,30 -28,33 -17,2 -29,-2 -33,-12 z"
         id="path7654" />
      <path
         inkscape:connector-curvature="0"
         d="m 1399,4714 c -17,-21 0,-48 33,-52 19,-2 25,-8 21,-21 -10,-38 48,-54 70,-19 14,22 -7,48 -39,48 -17,0 -22,4 -18,15 14,36 -41,60 -67,29 z"
         id="path7656" />
      <path
         inkscape:connector-curvature="0"
         d="m 1270,4665 c -26,-31 13,-82 44,-56 19,16 21,42 4,59 -16,16 -33,15 -48,-3 z"
         id="path7658" />
      <path
         inkscape:connector-curvature="0"
         d="m 1366,4633 c -26,-26 -45,-111 -28,-127 4,-4 7,-24 7,-44 0,-36 1,-37 40,-37 28,0 45,-6 57,-20 13,-16 20,-18 35,-9 39,24 20,80 -24,69 -19,-4 -23,-2 -23,19 0,13 7,26 15,30 8,3 15,17 15,31 0,14 -7,28 -15,31 -8,4 -15,14 -15,23 0,32 -43,54 -64,34 z"
         id="path7660" />
      <path
         inkscape:connector-curvature="0"
         d="m 1349,4384 c -17,-21 0,-49 31,-49 31,0 48,28 31,49 -8,9 -21,16 -31,16 -10,0 -23,-7 -31,-16 z"
         id="path7662" />
      <path
         inkscape:connector-curvature="0"
         d="m 1594,4126 c -12,-31 0,-51 31,-51 27,0 30,3 30,30 0,25 -4,30 -28,33 -17,2 -29,-2 -33,-12 z"
         id="path7664" />
      <path
         inkscape:connector-curvature="0"
         d="m 1464,3936 c -12,-31 0,-51 31,-51 27,0 30,3 30,30 0,25 -4,30 -28,33 -17,2 -29,-2 -33,-12 z"
         id="path7666" />
      <path
         inkscape:connector-curvature="0"
         d="m 2454,6576 c -12,-31 0,-51 31,-51 27,0 30,3 30,30 0,25 -4,30 -28,33 -17,2 -29,-2 -33,-12 z"
         id="path7668" />
      <path
         inkscape:connector-curvature="0"
         d="m 2685,6556 c -13,-19 -14,-29 -5,-45 16,-30 57,-28 72,5 24,52 -36,88 -67,40 z"
         id="path7670" />
      <path
         inkscape:connector-curvature="0"
         d="m 632,6538 c -6,-6 -12,-19 -12,-28 0,-8 -10,-20 -22,-25 -27,-12 -31,-53 -6,-68 20,-13 48,6 48,34 0,10 9,19 21,21 12,2 27,11 33,21 22,35 -32,75 -62,45 z"
         id="path7672" />
      <path
         inkscape:connector-curvature="0"
         d="m 664,6386 c -12,-31 0,-51 31,-51 27,0 30,3 30,30 0,25 -4,30 -28,33 -17,2 -29,-2 -33,-12 z"
         id="path7674" />
      <path
         inkscape:connector-curvature="0"
         d="m 1189,6374 c -17,-21 0,-49 31,-49 31,0 48,28 31,49 -8,9 -21,16 -31,16 -10,0 -23,-7 -31,-16 z"
         id="path7676" />
      <path
         inkscape:connector-curvature="0"
         d="m 2664,6366 c -12,-31 0,-51 31,-51 27,0 30,3 30,30 0,25 -4,30 -28,33 -17,2 -29,-2 -33,-12 z"
         id="path7678" />
      <path
         inkscape:connector-curvature="0"
         d="m 1531,6356 c -30,-36 9,-78 54,-58 21,10 26,18 23,40 -2,22 -9,28 -34,30 -18,2 -36,-3 -43,-12 z"
         id="path7680" />
      <path
         inkscape:connector-curvature="0"
         d="m 2094,6346 c -3,-8 -4,-25 -2,-38 2,-18 9,-23 32,-23 36,0 56,27 40,53 -14,22 -62,28 -70,8 z"
         id="path7682" />
      <path
         inkscape:connector-curvature="0"
         d="m 1716,6338 c -21,-67 -12,-108 23,-108 9,0 24,-14 33,-31 29,-49 64,-33 104,49 18,37 -30,66 -56,34 l -18,-21 -10,27 c -6,15 -13,35 -16,45 -6,20 -55,24 -60,5 z"
         id="path7684" />
      <path
         inkscape:connector-curvature="0"
         d="m 610,6295 c -26,-32 13,-81 48,-59 34,22 22,74 -18,74 -10,0 -23,-7 -30,-15 z"
         id="path7686" />
      <path
         inkscape:connector-curvature="0"
         d="m 1374,6286 c -12,-31 0,-51 31,-51 27,0 30,3 30,30 0,25 -4,30 -28,33 -17,2 -29,-2 -33,-12 z"
         id="path7688" />
      <path
         inkscape:connector-curvature="0"
         d="m 30,6275 c -26,-32 13,-81 48,-59 34,22 22,74 -18,74 -10,0 -23,-7 -30,-15 z"
         id="path7690" />
      <path
         inkscape:connector-curvature="0"
         d="m 199,6264 c -17,-21 0,-49 31,-49 31,0 48,28 31,49 -8,9 -21,16 -31,16 -10,0 -23,-7 -31,-16 z"
         id="path7692" />
      <path
         inkscape:connector-curvature="0"
         d="m 1618,6253 c -7,-10 -24,-18 -37,-18 -31,0 -50,-28 -35,-52 15,-24 42,-28 62,-10 9,9 33,17 52,19 28,2 36,8 38,27 7,44 -54,69 -80,34 z"
         id="path7694" />
      <path
         inkscape:connector-curvature="0"
         d="m 2382,6208 c -27,-27 0,-98 37,-98 42,0 53,42 20,84 -22,28 -39,32 -57,14 z"
         id="path7696" />
      <path
         inkscape:connector-curvature="0"
         d="m 1710,6185 c -26,-32 13,-81 48,-59 34,22 22,74 -18,74 -10,0 -23,-7 -30,-15 z"
         id="path7698" />
      <path
         inkscape:connector-curvature="0"
         d="m 3284,6166 c -12,-31 0,-51 31,-51 27,0 30,3 30,30 0,25 -4,30 -28,33 -17,2 -29,-2 -33,-12 z"
         id="path7700" />
      <path
         inkscape:connector-curvature="0"
         d="m 70,6155 c -26,-32 13,-81 48,-59 34,22 22,74 -18,74 -10,0 -23,-7 -30,-15 z"
         id="path7702" />
      <path
         inkscape:connector-curvature="0"
         d="m 160,6155 c -26,-32 13,-81 48,-59 12,8 22,8 35,0 23,-15 52,4 52,34 0,31 -29,49 -55,33 -12,-8 -21,-9 -25,-3 -9,15 -41,12 -55,-5 z"
         id="path7704" />
      <path
         inkscape:connector-curvature="0"
         d="m 2521,6156 c -9,-10 -10,-28 -4,-58 8,-39 11,-43 38,-43 28,0 30,3 33,43 2,24 -2,50 -9,58 -15,18 -43,18 -58,0 z"
         id="path7706" />
      <path
         inkscape:connector-curvature="0"
         d="m 2632,6148 c -23,-23 -14,-57 21,-78 40,-25 62,-25 79,-1 7,10 22,20 33,22 15,3 20,12 20,34 0,25 -4,30 -28,33 -22,3 -30,-1 -34,-17 -7,-26 -14,-26 -36,-1 -19,23 -38,25 -55,8 z"
         id="path7708" />
      <path
         inkscape:connector-curvature="0"
         d="m 2280,6125 c -26,-32 13,-81 48,-59 34,22 22,74 -18,74 -10,0 -23,-7 -30,-15 z"
         id="path7710" />
      <path
         inkscape:connector-curvature="0"
         d="m 1124,6116 c -3,-8 -4,-25 -2,-38 2,-18 9,-23 32,-23 36,0 56,27 40,53 -14,22 -62,28 -70,8 z"
         id="path7712" />
      <path
         inkscape:connector-curvature="0"
         d="m 1590,6075 c -26,-31 13,-82 44,-56 19,16 21,42 4,59 -16,16 -33,15 -48,-3 z"
         id="path7714" />
      <path
         inkscape:connector-curvature="0"
         d="m 94,6056 c -12,-31 0,-51 31,-51 27,0 30,3 30,30 0,25 -4,30 -28,33 -17,2 -29,-2 -33,-12 z"
         id="path7716" />
      <path
         inkscape:connector-curvature="0"
         d="m 2930,6055 c -26,-32 13,-81 48,-59 34,22 22,74 -18,74 -10,0 -23,-7 -30,-15 z"
         id="path7718" />
      <path
         inkscape:connector-curvature="0"
         d="m 3400,6055 c -26,-31 13,-82 44,-56 19,16 21,42 4,59 -16,16 -33,15 -48,-3 z"
         id="path7720" />
      <path
         inkscape:connector-curvature="0"
         d="m 2390,6015 c -26,-31 13,-82 44,-56 19,16 21,42 4,59 -16,16 -33,15 -48,-3 z"
         id="path7722" />
      <path
         inkscape:connector-curvature="0"
         d="m 489,5994 c -9,-11 -10,-20 -2,-32 24,-39 82,-15 68,28 -8,24 -47,27 -66,4 z"
         id="path7724" />
      <path
         inkscape:connector-curvature="0"
         d="m 3499,5974 c -17,-21 0,-49 31,-49 31,0 48,28 31,49 -8,9 -21,16 -31,16 -10,0 -23,-7 -31,-16 z"
         id="path7726" />
      <path
         inkscape:connector-curvature="0"
         d="m 569,5964 c -17,-21 0,-49 31,-49 31,0 48,28 31,49 -8,9 -21,16 -31,16 -10,0 -23,-7 -31,-16 z"
         id="path7728" />
      <path
         inkscape:connector-curvature="0"
         d="m 2910,5955 c -26,-32 13,-81 48,-59 34,22 22,74 -18,74 -10,0 -23,-7 -30,-15 z"
         id="path7730" />
      <path
         inkscape:connector-curvature="0"
         d="m 3396,5954 c -9,-8 -16,-20 -16,-26 0,-6 -8,-4 -18,5 -23,21 -46,22 -62,2 -15,-18 -10,-46 10,-55 8,-4 29,-15 47,-24 44,-23 59,-20 82,13 44,61 6,135 -43,85 z"
         id="path7732" />
      <path
         inkscape:connector-curvature="0"
         d="m 344,5946 c -12,-31 0,-51 31,-51 27,0 30,3 30,30 0,25 -4,30 -28,33 -17,2 -29,-2 -33,-12 z"
         id="path7734" />
      <path
         inkscape:connector-curvature="0"
         d="m 3575,5914 c -8,-20 -15,-42 -15,-49 0,-20 27,-37 52,-33 18,2 24,12 31,46 11,55 4,72 -28,72 -19,0 -28,-8 -40,-36 z"
         id="path7736" />
      <path
         inkscape:connector-curvature="0"
         d="m 1480,5915 c -26,-31 13,-82 44,-56 19,16 21,42 4,59 -16,16 -33,15 -48,-3 z"
         id="path7738" />
      <path
         inkscape:connector-curvature="0"
         d="m 760,5875 c -26,-31 13,-82 44,-56 19,16 21,42 4,59 -16,16 -33,15 -48,-3 z"
         id="path7740" />
      <path
         inkscape:connector-curvature="0"
         d="m 3455,5866 c -25,-38 -16,-71 18,-71 36,0 68,45 51,73 -17,27 -51,27 -69,-2 z"
         id="path7742" />
      <path
         inkscape:connector-curvature="0"
         d="m 1104,5836 c -12,-31 0,-51 31,-51 27,0 30,3 30,30 0,25 -4,30 -28,33 -17,2 -29,-2 -33,-12 z"
         id="path7744" />
      <path
         inkscape:connector-curvature="0"
         d="m 3102,5816 c -31,-29 -35,-38 -26,-53 11,-18 95,-39 121,-29 34,13 -9,115 -50,116 -4,0 -24,-16 -45,-34 z"
         id="path7746" />
      <path
         inkscape:connector-curvature="0"
         d="m 3304,5836 c -12,-31 0,-51 31,-51 27,0 30,3 30,30 0,25 -4,30 -28,33 -17,2 -29,-2 -33,-12 z"
         id="path7748" />
      <path
         inkscape:connector-curvature="0"
         d="m 1180,5795 c -26,-32 13,-81 48,-59 34,22 22,74 -18,74 -10,0 -23,-7 -30,-15 z"
         id="path7750" />
      <path
         inkscape:connector-curvature="0"
         d="m 2990,5745 c -26,-32 13,-81 48,-59 34,22 22,74 -18,74 -10,0 -23,-7 -30,-15 z"
         id="path7752" />
      <path
         inkscape:connector-curvature="0"
         d="m 2588,5732 c -7,-10 -21,-21 -31,-25 -25,-10 -32,-35 -14,-55 15,-16 15,-19 -3,-30 -40,-25 -13,-80 34,-68 31,8 40,33 22,61 -17,25 -10,36 37,60 26,13 33,40 17,60 -17,20 -46,19 -62,-3 z"
         id="path7754" />
      <path
         inkscape:connector-curvature="0"
         d="m 3642,5738 c -7,-7 -12,-18 -12,-25 0,-7 -5,-22 -12,-32 -9,-15 -9,-23 2,-36 16,-19 50,-16 60,5 32,65 33,69 20,85 -15,18 -41,20 -58,3 z"
         id="path7756" />
      <path
         inkscape:connector-curvature="0"
         d="m 3279,5724 c -17,-21 0,-49 31,-49 31,0 48,28 31,49 -8,9 -21,16 -31,16 -10,0 -23,-7 -31,-16 z"
         id="path7758" />
      <path
         inkscape:connector-curvature="0"
         d="m 2759,5714 c -17,-21 0,-49 31,-49 31,0 48,28 31,49 -8,9 -21,16 -31,16 -10,0 -23,-7 -31,-16 z"
         id="path7760" />
      <path
         inkscape:connector-curvature="0"
         d="m 3507,5662 c -20,-22 -22,-43 -5,-60 31,-31 93,4 86,50 -4,31 -56,38 -81,10 z"
         id="path7762" />
      <path
         inkscape:connector-curvature="0"
         d="m 2724,5625 c -8,-31 10,-55 43,-55 15,0 27,8 32,23 13,32 -4,57 -39,57 -23,0 -31,-5 -36,-25 z"
         id="path7764" />
      <path
         inkscape:connector-curvature="0"
         d="m 660,5613 c -49,-9 -67,-47 -35,-73 12,-10 21,-10 38,-2 12,6 31,12 41,14 28,5 43,33 27,52 -13,16 -24,17 -71,9 z"
         id="path7766" />
      <path
         inkscape:connector-curvature="0"
         d="m 527,5594 c -10,-11 -9,-52 3,-59 6,-4 5,-13 -2,-24 -23,-37 17,-75 53,-52 16,9 19,8 19,-7 0,-41 45,-55 73,-24 36,40 7,84 -43,65 -25,-9 -29,-8 -35,11 -4,11 -8,37 -9,56 -1,30 -5,35 -26,38 -14,2 -29,0 -33,-4 z"
         id="path7768" />
      <path
         inkscape:connector-curvature="0"
         d="m 3639,5584 c -17,-21 0,-49 31,-49 31,0 48,28 31,49 -8,9 -21,16 -31,16 -10,0 -23,-7 -31,-16 z"
         id="path7770" />
      <path
         inkscape:connector-curvature="0"
         d="m 2659,5577 c -28,-15 -33,-54 -7,-70 26,-17 68,7 68,37 0,33 -29,49 -61,33 z"
         id="path7772" />
      <path
         inkscape:connector-curvature="0"
         d="m 754,5486 c -12,-31 0,-51 31,-51 27,0 30,3 30,30 0,25 -4,30 -28,33 -17,2 -29,-2 -33,-12 z"
         id="path7774" />
      <path
         inkscape:connector-curvature="0"
         d="m 504,5406 c -12,-31 0,-51 31,-51 27,0 30,3 30,30 0,25 -4,30 -28,33 -17,2 -29,-2 -33,-12 z"
         id="path7776" />
      <path
         inkscape:connector-curvature="0"
         d="m 2590,5401 c -16,-31 4,-63 37,-59 34,4 52,32 37,56 -16,26 -60,28 -74,3 z"
         id="path7778" />
      <path
         inkscape:connector-curvature="0"
         d="m 669,5384 c -17,-21 0,-49 31,-49 31,0 48,28 31,49 -8,9 -21,16 -31,16 -10,0 -23,-7 -31,-16 z"
         id="path7780" />
      <path
         inkscape:connector-curvature="0"
         d="m 3540,5385 c -26,-32 13,-81 48,-59 34,22 22,74 -18,74 -10,0 -23,-7 -30,-15 z"
         id="path7782" />
      <path
         inkscape:connector-curvature="0"
         d="m 610,5335 c -26,-31 13,-82 44,-56 21,17 21,57 0,65 -23,9 -30,8 -44,-9 z"
         id="path7784" />
      <path
         inkscape:connector-curvature="0"
         d="m 2500,5325 c -26,-31 13,-82 44,-56 19,16 21,42 4,59 -16,16 -33,15 -48,-3 z"
         id="path7786" />
      <path
         inkscape:connector-curvature="0"
         d="m 3842,5314 c -45,-32 -8,-89 42,-66 28,13 35,49 14,70 -16,16 -29,15 -56,-4 z"
         id="path7788" />
      <path
         inkscape:connector-curvature="0"
         d="m 2624,5306 c -12,-31 0,-51 31,-51 27,0 30,3 30,30 0,25 -4,30 -28,33 -17,2 -29,-2 -33,-12 z"
         id="path7790" />
      <path
         inkscape:connector-curvature="0"
         d="m 3448,5293 c -35,-8 -33,-67 3,-76 25,-7 64,25 56,46 -7,20 -37,35 -59,30 z"
         id="path7792" />
      <path
         inkscape:connector-curvature="0"
         d="m 3751,5246 c -8,-9 -10,-23 -7,-32 4,-10 -1,-25 -10,-35 -19,-21 -16,-48 9,-63 25,-16 52,5 52,41 0,16 6,38 14,47 11,13 12,22 4,34 -14,23 -47,27 -62,8 z"
         id="path7794" />
      <path
         inkscape:connector-curvature="0"
         d="m 3284,5176 c -9,-23 -1,-48 19,-60 25,-16 52,4 52,40 0,25 -4,29 -33,32 -22,2 -34,-2 -38,-12 z"
         id="path7796" />
      <path
         inkscape:connector-curvature="0"
         d="m 864,5165 c -5,-12 -10,-13 -20,-4 -7,6 -23,9 -36,7 -18,-2 -23,-9 -23,-33 0,-25 4,-30 28,-33 18,-2 29,2 33,13 5,12 10,13 20,4 7,-6 23,-9 36,-7 18,2 23,9 23,33 0,25 -4,30 -28,33 -18,2 -29,-2 -33,-13 z"
         id="path7798" />
      <path
         inkscape:connector-curvature="0"
         d="m 3180,5105 c -26,-32 13,-81 48,-59 34,22 22,74 -18,74 -10,0 -23,-7 -30,-15 z"
         id="path7800" />
      <path
         inkscape:connector-curvature="0"
         d="m 3674,5026 c -12,-31 0,-51 31,-51 27,0 30,3 30,30 0,25 -4,30 -28,33 -17,2 -29,-2 -33,-12 z"
         id="path7802" />
      <path
         inkscape:connector-curvature="0"
         d="m 4047,5004 c -4,-5 -31,-9 -59,-11 -60,-3 -89,-24 -72,-51 6,-9 20,-18 32,-20 15,-2 21,-12 24,-42 2,-26 -1,-41 -9,-44 -7,-3 -13,0 -13,7 0,7 -12,25 -25,40 -18,21 -33,27 -53,25 -33,-4 -42,-40 -17,-68 12,-13 14,-28 10,-52 -10,-50 22,-104 60,-101 15,1 39,-7 53,-17 49,-39 76,-23 87,51 5,36 4,49 -7,55 -20,12 -30,55 -16,71 17,20 30,15 18,-7 -14,-26 3,-60 30,-60 13,0 20,-7 20,-19 0,-50 64,-53 95,-4 17,26 25,30 47,26 43,-8 60,12 52,61 -8,51 -22,69 -47,62 -12,-3 -26,3 -36,15 -15,19 -20,20 -59,7 -35,-10 -45,-19 -49,-40 -3,-16 -9,-28 -12,-28 -9,0 -6,70 4,94 5,10 4,26 -2,35 -11,17 -44,26 -56,15 z m 183,-143 c 0,-28 -13,-41 -36,-35 -13,4 -30,1 -38,-5 -10,-9 -15,-8 -20,4 -3,10 1,15 12,15 9,1 28,7 42,15 29,17 40,18 40,6 z m -253,-99 c 9,-6 7,-11 -7,-20 -17,-11 -20,-10 -20,8 0,21 7,25 27,12 z"
         id="path7804" />
      <path
         inkscape:connector-curvature="0"
         d="m 3694,4896 c -24,-20 -27,-28 -18,-43 17,-27 48,-27 80,1 24,20 27,28 18,43 -17,27 -48,27 -80,-1 z"
         id="path7806" />
      <path
         inkscape:connector-curvature="0"
         d="m 2820,4875 c -26,-31 13,-82 44,-56 19,16 21,42 4,59 -16,16 -33,15 -48,-3 z"
         id="path7808" />
      <path
         inkscape:connector-curvature="0"
         d="m 2979,4864 c -17,-21 0,-49 31,-49 31,0 48,28 31,49 -8,9 -21,16 -31,16 -10,0 -23,-7 -31,-16 z"
         id="path7810" />
      <path
         inkscape:connector-curvature="0"
         d="m 2689,4814 c -17,-21 0,-49 31,-49 31,0 48,28 31,49 -8,9 -21,16 -31,16 -10,0 -23,-7 -31,-16 z"
         id="path7812" />
      <path
         inkscape:connector-curvature="0"
         d="m 4339,4774 c -17,-21 0,-49 31,-49 31,0 48,28 31,49 -8,9 -21,16 -31,16 -10,0 -23,-7 -31,-16 z"
         id="path7814" />
      <path
         inkscape:connector-curvature="0"
         d="m 2579,4764 c -17,-21 0,-49 31,-49 31,0 48,28 31,49 -8,9 -21,16 -31,16 -10,0 -23,-7 -31,-16 z"
         id="path7816" />
      <path
         inkscape:connector-curvature="0"
         d="m 3279,4764 c -17,-21 0,-49 31,-49 31,0 48,28 31,49 -8,9 -21,16 -31,16 -10,0 -23,-7 -31,-16 z"
         id="path7818" />
      <path
         inkscape:connector-curvature="0"
         d="m 2505,4686 c -18,-26 -11,-53 15,-61 42,-13 70,27 43,64 -19,28 -39,26 -58,-3 z"
         id="path7820" />
      <path
         inkscape:connector-curvature="0"
         d="m 3632,4680 c -24,-33 -28,-60 -10,-78 9,-9 7,-17 -10,-35 -26,-27 -28,-50 -7,-67 12,-10 21,-10 38,-2 12,6 36,13 52,14 26,3 30,7 33,36 3,27 -1,35 -17,39 -20,5 -20,6 4,35 30,36 31,42 5,68 -29,29 -62,25 -88,-10 z"
         id="path7822" />
      <path
         inkscape:connector-curvature="0"
         d="m 4519,4684 c -17,-21 0,-49 31,-49 31,0 48,28 31,49 -8,9 -21,16 -31,16 -10,0 -23,-7 -31,-16 z"
         id="path7824" />
      <path
         inkscape:connector-curvature="0"
         d="m 1854,4676 c -12,-31 0,-51 31,-51 27,0 30,3 30,30 0,25 -4,30 -28,33 -17,2 -29,-2 -33,-12 z"
         id="path7826" />
      <path
         inkscape:connector-curvature="0"
         d="m 2039,4634 c -17,-21 0,-49 31,-49 31,0 48,28 31,49 -8,9 -21,16 -31,16 -10,0 -23,-7 -31,-16 z"
         id="path7828" />
      <path
         inkscape:connector-curvature="0"
         d="m 3783,4624 c -3,-9 -6,-32 -7,-52 -1,-35 1,-37 29,-37 26,0 30,5 38,38 5,20 6,44 3,52 -7,20 -55,19 -63,-1 z"
         id="path7830" />
      <path
         inkscape:connector-curvature="0"
         d="m 4374,4616 c -12,-31 0,-51 31,-51 27,0 30,3 30,30 0,25 -4,30 -28,33 -17,2 -29,-2 -33,-12 z"
         id="path7832" />
      <path
         inkscape:connector-curvature="0"
         d="m 1870,4596 c -7,-9 -10,-26 -6,-40 4,-15 0,-28 -10,-37 -10,-8 -13,-21 -9,-36 4,-16 1,-23 -9,-23 -17,0 -29,-31 -20,-53 8,-22 30,-27 84,-19 41,6 45,10 48,37 2,17 -2,33 -10,40 -22,15 -30,62 -16,85 23,37 -24,79 -52,46 z"
         id="path7834" />
      <path
         inkscape:connector-curvature="0"
         d="m 1960,4549 c -25,-45 28,-93 59,-55 7,8 11,27 9,43 -4,37 -50,46 -68,12 z"
         id="path7836" />
      <path
         inkscape:connector-curvature="0"
         d="m 4492,4548 c -6,-6 -12,-20 -12,-30 0,-10 -5,-27 -12,-37 -9,-15 -9,-23 2,-36 16,-19 50,-16 60,5 32,64 34,72 24,88 -14,21 -45,27 -62,10 z"
         id="path7838" />
      <path
         inkscape:connector-curvature="0"
         d="m 4357,4524 c -10,-10 -9,-48 2,-59 5,-6 11,-21 13,-35 2,-20 9,-25 33,-25 34,0 44,23 27,59 -6,11 -12,30 -14,41 -3,20 -46,33 -61,19 z"
         id="path7840" />
      <path
         inkscape:connector-curvature="0"
         d="m 3970,4405 c -26,-32 13,-81 48,-59 34,22 22,74 -18,74 -10,0 -23,-7 -30,-15 z"
         id="path7842" />
      <path
         inkscape:connector-curvature="0"
         d="m 3792,4308 c -15,-15 -15,-41 -1,-55 8,-8 7,-16 -2,-31 -10,-17 -10,-23 0,-36 29,-35 87,-3 63,35 -7,11 -9,30 -6,44 10,42 -26,71 -54,43 z"
         id="path7844" />
      <path
         inkscape:connector-curvature="0"
         d="m 3104,4296 c -12,-31 0,-51 31,-51 27,0 30,3 30,30 0,25 -4,30 -28,33 -17,2 -29,-2 -33,-12 z"
         id="path7846" />
      <path
         inkscape:connector-curvature="0"
         d="m 3622,4298 c -28,-28 -3,-72 39,-66 30,4 47,33 33,56 -14,21 -55,27 -72,10 z"
         id="path7848" />
      <path
         inkscape:connector-curvature="0"
         d="m 4184,4236 c -12,-31 0,-51 31,-51 27,0 30,3 30,30 0,25 -4,30 -28,33 -17,2 -29,-2 -33,-12 z"
         id="path7850" />
      <path
         inkscape:connector-curvature="0"
         d="m 4338,4209 c -10,-5 -18,-17 -18,-24 0,-8 -8,-15 -18,-15 -10,0 -22,-4 -27,-9 -6,-5 -21,-11 -34,-13 -38,-5 -48,-31 -28,-72 13,-29 22,-36 46,-36 17,0 31,-6 35,-16 9,-23 60,-14 64,11 2,18 10,21 69,20 52,0 68,4 77,18 17,26 -5,52 -45,53 -77,2 -84,3 -71,16 18,18 14,56 -7,68 -23,12 -22,12 -43,-1 z m 18,-105 c -8,-18 -19,-24 -41,-23 -29,0 -29,1 -7,10 13,5 26,18 29,28 3,11 11,17 18,15 10,-4 10,-11 1,-30 z"
         id="path7852" />
      <path
         inkscape:connector-curvature="0"
         d="m 4460,4205 c -26,-31 13,-82 44,-56 19,16 21,42 4,59 -16,16 -33,15 -48,-3 z"
         id="path7854" />
      <path
         inkscape:connector-curvature="0"
         d="m 4599,4194 c -17,-21 0,-49 31,-49 31,0 48,28 31,49 -8,9 -21,16 -31,16 -10,0 -23,-7 -31,-16 z"
         id="path7856" />
      <path
         inkscape:connector-curvature="0"
         d="m 3431,4186 c -7,-8 -10,-23 -7,-33 4,-13 -1,-21 -17,-28 -42,-19 -29,-75 18,-75 29,0 49,24 42,51 -4,15 1,27 16,40 18,14 20,21 11,36 -14,23 -47,28 -63,9 z"
         id="path7858" />
      <path
         inkscape:connector-curvature="0"
         d="m 3199,4124 c -17,-21 0,-49 31,-49 31,0 48,28 31,49 -8,9 -21,16 -31,16 -10,0 -23,-7 -31,-16 z"
         id="path7860" />
      <path
         inkscape:connector-curvature="0"
         d="m 2289,4104 c -17,-21 0,-49 31,-49 31,0 48,28 31,49 -8,9 -21,16 -31,16 -10,0 -23,-7 -31,-16 z"
         id="path7862" />
      <path
         inkscape:connector-curvature="0"
         d="m 3061,4066 c -7,-8 -11,-23 -9,-34 2,-10 -3,-26 -10,-35 -21,-24 -11,-61 16,-65 28,-4 62,23 62,50 0,10 6,27 12,38 25,40 -41,83 -71,46 z"
         id="path7864" />
      <path
         inkscape:connector-curvature="0"
         d="m 2190,4055 c -26,-32 13,-81 48,-59 34,22 22,74 -18,74 -10,0 -23,-7 -30,-15 z"
         id="path7866" />
      <path
         inkscape:connector-curvature="0"
         d="m 4820,3945 c -26,-32 13,-81 48,-59 34,22 22,74 -18,74 -10,0 -23,-7 -30,-15 z"
         id="path7868" />
      <path
         inkscape:connector-curvature="0"
         d="m 4090,3875 c -26,-32 13,-81 48,-59 34,22 22,74 -18,74 -10,0 -23,-7 -30,-15 z"
         id="path7870" />
      <path
         inkscape:connector-curvature="0"
         d="m 3649,3864 c -17,-21 0,-49 31,-49 31,0 48,28 31,49 -8,9 -21,16 -31,16 -10,0 -23,-7 -31,-16 z"
         id="path7872" />
      <path
         inkscape:connector-curvature="0"
         d="m 3869,3814 c -17,-21 0,-49 31,-49 31,0 48,28 31,49 -8,9 -21,16 -31,16 -10,0 -23,-7 -31,-16 z"
         id="path7874" />
      <path
         inkscape:connector-curvature="0"
         d="m 4320,3815 c -26,-32 13,-81 48,-59 34,22 22,74 -18,74 -10,0 -23,-7 -30,-15 z"
         id="path7876" />
      <path
         inkscape:connector-curvature="0"
         d="m 4580,3815 c -26,-31 13,-82 44,-56 19,16 21,42 4,59 -16,16 -33,15 -48,-3 z"
         id="path7878" />
      <path
         inkscape:connector-curvature="0"
         d="m 3290,3795 c -26,-32 13,-81 48,-59 34,22 22,74 -18,74 -10,0 -23,-7 -30,-15 z"
         id="path7880" />
      <path
         inkscape:connector-curvature="0"
         d="m 4659,3764 c -17,-21 0,-49 31,-49 31,0 48,28 31,49 -8,9 -21,16 -31,16 -10,0 -23,-7 -31,-16 z"
         id="path7882" />
      <path
         inkscape:connector-curvature="0"
         d="m 2114,3726 c -4,-9 -4,-25 -1,-35 3,-13 -2,-21 -15,-24 -15,-4 -19,-13 -16,-34 3,-24 8,-28 33,-28 26,0 30,4 33,30 2,16 11,34 19,40 8,6 13,22 11,36 -4,29 -54,41 -64,15 z"
         id="path7884" />
      <path
         inkscape:connector-curvature="0"
         d="m 3797,3734 c -14,-14 -7,-101 9,-115 29,-24 49,1 49,62 0,50 -2,54 -25,57 -14,2 -29,0 -33,-4 z"
         id="path7886" />
      <path
         inkscape:connector-curvature="0"
         d="m 1910,3715 c -26,-32 13,-81 48,-59 34,22 22,74 -18,74 -10,0 -23,-7 -30,-15 z"
         id="path7888" />
      <path
         inkscape:connector-curvature="0"
         d="m 4584,3706 c -12,-31 0,-51 31,-51 27,0 30,3 30,30 0,25 -4,30 -28,33 -17,2 -29,-2 -33,-12 z"
         id="path7890" />
      <path
         inkscape:connector-curvature="0"
         d="m 1832,3668 c -21,-21 -14,-57 14,-70 50,-23 87,34 42,66 -27,19 -40,20 -56,4 z"
         id="path7892" />
      <path
         inkscape:connector-curvature="0"
         d="m 3589,3624 c -17,-21 0,-49 31,-49 31,0 48,28 31,49 -8,9 -21,16 -31,16 -10,0 -23,-7 -31,-16 z"
         id="path7894" />
      <path
         inkscape:connector-curvature="0"
         d="m 1988,3611 c -9,-15 -15,-17 -30,-8 -35,23 -75,-26 -48,-58 17,-21 48,-19 62,4 9,15 15,17 30,8 35,-23 75,26 48,58 -17,21 -48,19 -62,-4 z"
         id="path7896" />
      <path
         inkscape:connector-curvature="0"
         d="m 3360,3605 c -26,-32 13,-81 48,-59 34,22 22,74 -18,74 -10,0 -23,-7 -30,-15 z"
         id="path7898" />
      <path
         inkscape:connector-curvature="0"
         d="m 3470,3595 c -26,-31 13,-82 44,-56 19,16 21,42 4,59 -16,16 -33,15 -48,-3 z"
         id="path7900" />
      <path
         inkscape:connector-curvature="0"
         d="m 3050,3575 c -26,-31 13,-82 44,-56 19,16 21,42 4,59 -16,16 -33,15 -48,-3 z"
         id="path7902" />
      <path
         inkscape:connector-curvature="0"
         d="m 1782,3568 c -16,-16 -16,-43 1,-55 21,-18 87,-25 103,-12 17,14 18,43 2,57 -22,17 -92,24 -106,10 z"
         id="path7904" />
      <path
         inkscape:connector-curvature="0"
         d="m 4152,3558 c -15,-15 -16,-45 -2,-53 6,-3 10,-19 10,-34 0,-16 7,-34 15,-41 31,-26 69,16 47,51 -7,10 -12,29 -12,42 0,24 -17,47 -35,47 -6,0 -16,-5 -23,-12 z"
         id="path7906" />
      <path
         inkscape:connector-curvature="0"
         d="m 4270,3555 c -26,-31 13,-82 44,-56 19,16 21,42 4,59 -16,16 -33,15 -48,-3 z"
         id="path7908" />
      <path
         inkscape:connector-curvature="0"
         d="m 912,3548 c -16,-16 -15,-33 3,-48 14,-11 14,-15 -2,-32 -22,-24 -7,-53 27,-53 33,0 49,30 28,52 -17,16 -17,18 -1,36 13,14 15,22 7,35 -14,21 -45,27 -62,10 z"
         id="path7910" />
      <path
         inkscape:connector-curvature="0"
         d="m 3162,3518 c -7,-7 -12,-18 -12,-25 0,-9 -8,-11 -23,-8 -43,11 -63,-44 -25,-68 20,-13 48,6 48,34 0,17 3,18 20,7 37,-23 77,24 50,57 -15,18 -42,19 -58,3 z"
         id="path7912" />
      <path
         inkscape:connector-curvature="0"
         d="m 3324,3506 c -16,-41 28,-74 60,-47 10,8 17,7 26,-5 9,-10 22,-13 37,-9 12,3 31,0 42,-7 15,-9 23,-9 35,1 33,28 7,79 -33,66 -11,-3 -29,0 -40,7 -17,10 -23,9 -39,-5 -17,-16 -20,-16 -25,-2 -8,19 -56,20 -63,1 z"
         id="path7914" />
      <path
         inkscape:connector-curvature="0"
         d="m 1724,3486 c -12,-31 0,-51 31,-51 27,0 30,3 30,30 0,25 -4,30 -28,33 -17,2 -29,-2 -33,-12 z"
         id="path7916" />
      <path
         inkscape:connector-curvature="0"
         d="m 3232,3458 c -18,-18 -15,-46 8,-60 11,-7 20,-18 20,-24 0,-6 6,-17 14,-24 8,-6 12,-18 10,-25 -5,-11 -10,-12 -25,-2 -36,22 -76,-25 -49,-58 15,-18 42,-19 58,-3 6,6 26,12 44,12 27,1 34,6 36,24 2,13 -2,29 -8,37 -9,11 -7,12 9,8 12,-3 27,0 35,6 7,6 21,9 30,5 20,-8 46,12 46,36 0,25 -26,44 -47,35 -22,-10 -90,-13 -101,-6 -4,4 -12,15 -18,26 -13,24 -44,31 -62,13 z"
         id="path7918" />
      <path
         inkscape:connector-curvature="0"
         d="m 2484,3436 c -12,-31 0,-51 31,-51 27,0 30,3 30,30 0,25 -4,30 -28,33 -17,2 -29,-2 -33,-12 z"
         id="path7920" />
      <path
         inkscape:connector-curvature="0"
         d="m 2030,3425 c -26,-32 13,-81 48,-59 34,22 22,74 -18,74 -10,0 -23,-7 -30,-15 z"
         id="path7922" />
      <path
         inkscape:connector-curvature="0"
         d="m 4509,3414 c -17,-21 0,-49 31,-49 31,0 48,28 31,49 -8,9 -21,16 -31,16 -10,0 -23,-7 -31,-16 z"
         id="path7924" />
      <path
         inkscape:connector-curvature="0"
         d="m 4632,3418 c -16,-16 -15,-43 3,-58 8,-7 15,-20 15,-30 0,-39 52,-52 74,-18 8,13 6,21 -7,36 -9,10 -17,27 -17,38 0,24 -18,44 -40,44 -9,0 -21,-5 -28,-12 z"
         id="path7926" />
      <path
         inkscape:connector-curvature="0"
         d="m 3484,3406 c -12,-31 0,-51 31,-51 27,0 30,3 30,30 0,25 -4,30 -28,33 -17,2 -29,-2 -33,-12 z"
         id="path7928" />
      <path
         inkscape:connector-curvature="0"
         d="m 4304,3396 c -12,-31 0,-51 31,-51 27,0 30,3 30,30 0,25 -4,30 -28,33 -17,2 -29,-2 -33,-12 z"
         id="path7930" />
      <path
         inkscape:connector-curvature="0"
         d="m 884,3386 c -15,-40 27,-74 59,-47 14,11 50,-14 60,-42 5,-13 15,-17 34,-15 22,2 29,9 31,31 3,22 -1,30 -16,34 -11,3 -22,13 -25,24 -7,25 -35,35 -58,21 -11,-7 -20,-8 -24,-2 -9,15 -55,12 -61,-4 z"
         id="path7932" />
      <path
         inkscape:connector-curvature="0"
         d="m 4420,3365 c -26,-31 13,-82 44,-56 19,16 21,42 4,59 -16,16 -33,15 -48,-3 z"
         id="path7934" />
      <path
         inkscape:connector-curvature="0"
         d="m 4769,3364 c -17,-21 0,-49 31,-49 31,0 48,28 31,49 -8,9 -21,16 -31,16 -10,0 -23,-7 -31,-16 z"
         id="path7936" />
      <path
         inkscape:connector-curvature="0"
         d="m 2490,3335 c -26,-32 13,-81 48,-59 34,22 22,74 -18,74 -10,0 -23,-7 -30,-15 z"
         id="path7938" />
      <path
         inkscape:connector-curvature="0"
         d="m 4551,3336 c -7,-8 -19,-12 -27,-9 -20,8 -44,-15 -44,-43 0,-30 35,-42 59,-20 10,9 27,16 38,16 29,0 50,27 36,48 -13,22 -47,27 -62,8 z"
         id="path7940" />
      <path
         inkscape:connector-curvature="0"
         d="m 2810,3325 c -26,-31 13,-82 44,-56 19,16 21,42 4,59 -16,16 -33,15 -48,-3 z"
         id="path7942" />
      <path
         inkscape:connector-curvature="0"
         d="m 1850,3305 c -26,-32 13,-81 48,-59 34,22 22,74 -18,74 -10,0 -23,-7 -30,-15 z"
         id="path7944" />
      <path
         inkscape:connector-curvature="0"
         d="m 1140,3265 c -26,-31 13,-82 44,-56 19,16 21,42 4,59 -16,16 -33,15 -48,-3 z"
         id="path7946" />
      <path
         inkscape:connector-curvature="0"
         d="m 4710,3265 c -26,-31 13,-82 44,-56 19,16 21,42 4,59 -16,16 -33,15 -48,-3 z"
         id="path7948" />
      <path
         inkscape:connector-curvature="0"
         d="m 1654,3246 c -12,-31 0,-51 31,-51 27,0 30,3 30,30 0,25 -4,30 -28,33 -17,2 -29,-2 -33,-12 z"
         id="path7950" />
      <path
         inkscape:connector-curvature="0"
         d="m 1044,3236 c -12,-31 0,-51 31,-51 27,0 30,3 30,30 0,25 -4,30 -28,33 -17,2 -29,-2 -33,-12 z"
         id="path7952" />
      <path
         inkscape:connector-curvature="0"
         d="m 4572,3238 c -7,-7 -12,-18 -12,-26 0,-9 -7,-11 -20,-7 -12,4 -28,1 -36,-6 -13,-11 -18,-10 -25,4 -22,39 -73,9 -67,-40 2,-22 9,-29 31,-31 18,-2 29,2 33,13 6,14 8,14 25,-1 22,-20 46,-12 59,18 10,25 12,20 14,-32 1,-32 4,-35 31,-35 24,0 31,5 33,23 2,13 -2,29 -8,37 -7,9 -8,15 0,20 26,16 3,75 -30,75 -9,0 -21,-5 -28,-12 z"
         id="path7954" />
      <path
         inkscape:connector-curvature="0"
         d="m 2770,3225 c -26,-31 13,-82 44,-56 19,16 21,42 4,59 -16,16 -33,15 -48,-3 z"
         id="path7956" />
      <path
         inkscape:connector-curvature="0"
         d="m 2857,3202 c -20,-22 -22,-43 -5,-60 17,-17 42,-15 61,6 21,23 21,36 1,56 -20,21 -37,20 -57,-2 z"
         id="path7958" />
      <path
         inkscape:connector-curvature="0"
         d="m 4300,3185 c -26,-32 13,-81 48,-59 34,22 22,74 -18,74 -10,0 -23,-7 -30,-15 z"
         id="path7960" />
      <path
         inkscape:connector-curvature="0"
         d="m 2632,3168 c -29,-29 0,-75 39,-65 15,4 27,-1 40,-16 14,-18 21,-20 36,-11 38,23 20,81 -22,70 -14,-4 -25,1 -33,14 -14,22 -42,26 -60,8 z"
         id="path7962" />
      <path
         inkscape:connector-curvature="0"
         d="m 3419,3114 c -17,-21 0,-49 31,-49 31,0 48,28 31,49 -8,9 -21,16 -31,16 -10,0 -23,-7 -31,-16 z"
         id="path7964" />
      <path
         inkscape:connector-curvature="0"
         d="m 2780,3085 c -26,-32 13,-81 48,-59 34,22 22,74 -18,74 -10,0 -23,-7 -30,-15 z"
         id="path7966" />
      <path
         inkscape:connector-curvature="0"
         d="m 4670,3085 c -26,-32 13,-81 48,-59 34,22 22,74 -18,74 -10,0 -23,-7 -30,-15 z"
         id="path7968" />
      <path
         inkscape:connector-curvature="0"
         d="m 3326,3077 c -38,-27 2,-95 42,-71 21,14 28,50 12,70 -15,17 -31,18 -54,1 z"
         id="path7970" />
      <path
         inkscape:connector-curvature="0"
         d="m 3470,3045 c -26,-31 13,-82 44,-56 19,16 21,42 4,59 -16,16 -33,15 -48,-3 z"
         id="path7972" />
      <path
         inkscape:connector-curvature="0"
         d="m 2694,3016 c -12,-31 0,-51 31,-51 27,0 30,3 30,30 0,25 -4,30 -28,33 -17,2 -29,-2 -33,-12 z"
         id="path7974" />
      <path
         inkscape:connector-curvature="0"
         d="m 1769,2834 c -17,-21 0,-49 31,-49 31,0 48,28 31,49 -8,9 -21,16 -31,16 -10,0 -23,-7 -31,-16 z"
         id="path7976" />
    </g>
  </g>
</svg>
